/* XPM */
static char *c703c6eeba5a47bd86d8ee1241d5c50baNWyYBnMUOrAJkFo[] = {
/* columns rows colors chars-per-pixel */
"64 64 31 1 ",
"  c None",
". c #646751",
"X c #707762",
"o c #A84111",
"O c #A84212",
"+ c #AD4B19",
"@ c #B7602A",
"# c #BC6B33",
"$ c #C1753B",
"% c #898763",
"& c #CC8A4C",
"* c #D69F5D",
"= c #E5BE76",
"- c #E6BF77",
"; c #EAC67D",
": c #EBC97F",
"> c #899683",
", c #95A594",
"< c #AFB695",
"1 c #C8BD80",
"2 c #CCC286",
"3 c #D4C886",
"4 c #D4CD91",
"5 c #D8D297",
"6 c #F4DB8E",
"7 c #E1D797",
"8 c #EDDD92",
"9 c #F5DE90",
"0 c #F2E298",
"q c #FAE898",
"w c #FBE898",
/* pixels */
"                                                                ",
"                                                                ",
"                                                                ",
"                                                                ",
"                                                                ",
"                                                                ",
"                                                                ",
"                                                                ",
"                                                                ",
"                                                                ",
"                                                                ",
"                                                                ",
"                                                                ",
"                                                                ",
"                qqqqqqqqqqqqqqqqqqq=#o                          ",
"                qqqqqqqqqqqqqqqqq9:*@o                          ",
"              qqqqqqqqqqqqqqqqqqq:&@+ooo                        ",
"              qqqqqqqqqqqqqqqqqqq=#ooooo                        ",
"              qqqqqqqqqqqqqqqqqqq=#ooooo                        ",
"              qqqqqqqqqqqqqqqqqqq:&@+ooo                        ",
"                qqqqqqqqqqqqqqqqq9:*@ooo                        ",
"                qqq6;==============*@+@#                        ",
"                    $##############@+@*=                        ",
"                    #################&:q                        ",
"                    =================:9q                        ",
"                    q0755557083111138qqq                        ",
"                    q7<,,,,<73%....%3qqq                        ",
"                    q7<,,,,<73%....%3qqq                        ",
"                    q0755557083111138qqq                        ",
"                    q8311112470075570qqq                        ",
"                    q3%....X><77<,,<7qqq                        ",
"                    q3%....X><77<,,<7qqq                        ",
"                    q8311112470075570qqq                        ",
"                    q0755421124700770qqq                        ",
"                    q7<,,>X..X><77<<7qqq                        ",
"                    q7<,,>X..X><77<<7qqq                        ",
"                    q0755421124700770qqq                        ",
"                    q0755708311111138qqq                        ",
"                    q7<,,<73%......%3qqq                        ",
"                    q7<,,<73%......%3qq6                        ",
"                    q0755708311111138qq;$ooo                    ",
"                    q8311247007421138qq=#ooo                    ",
"                    q3%..X><77<>X..%3qq=#ooooo                  ",
"                    q3%..X><77<>X..%3qq=#ooooo                  ",
"                    q8311247007421138qq=#ooooo                  ",
"                    qqqqqqqqqqqqqqqqqqq:&@+ooo                  ",
"                      qqqqqqqqqqqqqqqqq9:*@o                    ",
"                      qqqqqqqqqqqqqqqqqqq=#o                    ",
"                                                                ",
"                                                                ",
"                                                                ",
"                                                                ",
"                                                                ",
"                                                                ",
"                                                                ",
"                                                                ",
"                                                                ",
"                                                                ",
"                                                                ",
"                                                                ",
"                                                                ",
"                                                                ",
"                                                                ",
"                                                                "
};
