/* XPM */
static char *_c70a2657cd84f1681d4911afda232ec6PXqb204mF8BTrST[] = {
/* columns rows colors chars-per-pixel */
"64 64 130 2 ",
"   c #0C1317",
".  c #252427",
"X  c #564646",
"o  c #6F5756",
"O  c #765F63",
"+  c #856E7D",
"@  c #8D768A",
"#  c #111B24",
"$  c #232730",
"%  c #484148",
"&  c #5B4E54",
"*  c #5F5056",
"=  c #66555B",
"-  c #6A575E",
";  c #6F5D67",
":  c #7B697B",
">  c #806E85",
",  c #7D6C82",
"<  c #75677D",
"1  c #71657B",
"2  c #837288",
"3  c #887A90",
"4  c #8A7D93",
"5  c #857889",
"6  c #796C76",
"7  c #74666C",
"8  c #776872",
"9  c #7D6C7F",
"0  c #6C5F71",
"q  c #61545D",
"w  c #1A2A3F",
"e  c #202E43",
"r  c #2D374B",
"t  c #333B4F",
"y  c #3E4257",
"u  c #545166",
"i  c #5F586D",
"p  c #615A70",
"a  c #655E77",
"s  c #675F7A",
"d  c #5C5873",
"f  c #464A64",
"g  c #39435E",
"h  c #6E6B85",
"j  c #7D819B",
"k  c #858CA6",
"l  c #838BA2",
"z  c #7F879C",
"x  c #7D8599",
"c  c #787B91",
"v  c #6C6982",
"b  c #394159",
"n  c #353D52",
"m  c #1F324D",
"M  c #23344F",
"N  c #2A3954",
"B  c #2E3B57",
"V  c #303F5B",
"C  c #354762",
"Z  c #43526D",
"A  c #59607C",
"S  c #646783",
"D  c #616380",
"F  c #5C5C79",
"G  c #5A5875",
"H  c #4F516D",
"J  c #3B4662",
"K  c #565C78",
"L  c #6B728E",
"P  c #7A89A4",
"I  c #8294AF",
"U  c #404763",
"Y  c #4B4E6B",
"T  c #535A76",
"R  c #62708C",
"E  c #6D7E99",
"W  c #74839E",
"Q  c #7885A0",
"!  c #707A96",
"~  c #565672",
"^  c #6D7793",
"/  c #8090AB",
"(  c #696E8B",
")  c #737D99",
"_  c #697B96",
"`  c #384A65",
"'  c #687692",
"]  c #485974",
"[  c #4A5D78",
"{  c #6F829D",
"}  c #656C88",
"|  c #7C8EA9",
" . c #FAE898",
".. c #E5BE76",
"X. c #BC6B33",
"o. c #A84111",
"O. c #F5DE90",
"+. c #EBC97F",
"@. c #D69F5D",
"#. c #B7602A",
"$. c #CC8A4C",
"%. c #AD4B19",
"&. c #445772",
"*. c #5D6F8A",
"=. c #404E69",
"-. c #515571",
";. c #F4DB8E",
":. c #EAC67D",
">. c #65738E",
",. c #5E617D",
"<. c #35405C",
"1. c #C1753B",
"2. c #F2E298",
"3. c #E1D797",
"4. c #D8D297",
"5. c #EDDD92",
"6. c #D4C886",
"7. c #C8BD80",
"8. c #AFB695",
"9. c #95A594",
"0. c #898763",
"q. c #646751",
"w. c #CCC286",
"e. c #D4CD91",
"r. c #707762",
"t. c #899683",
"y. c #5A6B87",
"u. c #3D4B67",
"i. c #464D6A",
"p. c black",
/* pixels */
"  . X o o o o o o o o o o o o o o O + @ @ @ @ @ @ @ @ @ @ @ @ @ @ @ @ @ @ @ @ @ @ + O o o o o o o o o O + @ @ @ @ @ @ + O X .   ",
"# $ % & & & & & & & & * = - - - - ; : > > > > > > > > , < 1 1 1 1 1 1 < , 2 3 4 4 5 6 7 7 7 7 7 7 7 7 8 9 > > > > , < 0 q % $ # ",
"w e r t t t t t t t t y u i i i i p a s s s s s s s s d f g g g g g g f d h j k k l z x x x x x x x x c v s s s s d f b n r e w ",
"m M N B B B B B B V C Z A S S S S S S S S S S D F G G H g B B B B B B J K L P I I I I I I I I I I I I P L S S D F H g B B N M m ",
"m N U Y Y Y Y Y Y T R E W Q Q Q Q Q Q Q Q Q Q ! D G G ~ H Y Y Y Y Y Y K ^ P / I I I I I I I I I I I I / P Q Q ! D ~ H Y Y U N m ",
"m B Y G G G G F D L P I I I I I I I I I I I I P L D F G G G G G G F D L P I I I I I I I I I I I I I I I I I I Q S F D S S K J B ",
"m B Y G G G G D ! P / I I I I I I I I I I I I / P ! D G G G G G G D ! P / I I I I I I I I I I I I I I I I I I Q S D ! Q Q ^ K Y ",
"B g H G G F D L P I I I I I I I I I I I I I I I I P L D F G G F D L P I I I I I I I I I I I I I I I I I I I I W A A W I I P L S ",
"Y H ~ G G D ! P / I I I I I I I I I I I I I I I I / P ! D G G D ! P / I I I I I I I I I I I I I I I I I I I I E Z Z E I I / P Q ",
"G F D D F S Q I I I I I I I I I I I I I I I I I I I I P L S S ( ) P / I I I I I I I I I I I I I I I I I I I I _ ` ` _ I I I I I ",
"G D ! ! D S Q I I I I I I I I I I I I I I I I I I I I / P Q Q ) ( L P I I I I I I I I I I I I I I I I I I I I _ ` ` _ I I I I I ",
"S L P P L L P I I I I I I I I I I I I I I I I I I I I I I I I Q S S Q I I I I I I I I I I I I I I I I I I / P ' ] [ { I I I I I ",
"Q P / / P P / I I I I I I I I I I I I I I I I I I I I I I I I Q S S Q I I I I I I I I I I I I I I I I I I P L } ' { | I I I I I ",
"I I I I I I I I I I I I I I I I I I I I I I I I I I I I I I I P L L P I I I I I I I I I I I I I I I I / P ! D S Q I I I I I I I ",
"I I I I I I I I I I I I I I I I I I I I I I I I I I I I I I I / P P / I I I I I I I I I I I I I I I I P L D F S Q I I I I I I I ",
"I I I / P P / I I I I I I I I I I I I I  . . . . . . . . . . . . . . . . . . ...X.o.I I I I I I I / P ! D G G S Q I I I I I I I ",
"I I I P L L P I I I I I I I I I I I I I  . . . . . . . . . . . . . . . . .O.+.@.#.o.I I I I I I I P L D F G G S Q I I I I I I I ",
"I I I Q S S Q I I I I I I I I I I I  . . . . . . . . . . . . . . . . . . .+.$.#.%.o.o.o.I I I / P ) ( S S S S } ' { | I I / P Q ",
"I I I Q S S Q I I I I I I I I I I I  . . . . . . . . . . . . . . . . . . ...X.o.o.o.o.o.I I I P L ( ) Q Q Q Q ' ] [ { I I P L S ",
"Q P / Q S D ! P / I I I I I I I I I  . . . . . . . . . . . . . . . . . . ...X.o.o.o.o.o.I | { ' } L P I I I I { [ &.*.E W ! D G ",
"S L P Q S F D L P I I I I I I I I I  . . . . . . . . . . . . . . . . . . .+.$.#.%.o.o.o.I { [ ] ' P / I I I I | { *.&.Z A D F G ",
"G D ! ! D ~ H K ^ P / I I I I I I I I I  . . . . . . . . . . . . . . . . .O.+.@.#.o.o.o.Q ' ] [ { I I I I I I I I { [ =.-.~ H Y ",
"G F D D F H g J K L P I I I I I I I I I  . . .;.:.............................@.#.%.#.X.S } ' { | I I I I I I I I | { >.,.H g B ",
"G G G F D K J <.f K ^ P / I I I I I I I I I I I 1.X.X.X.X.X.X.X.X.X.X.X.X.X.X.#.%.#.@...D L P I I I I I I I I I I I I P L T V m ",
"G G G D ! ^ K f <.J K L P I I I I I I I I I I I X.X.X.X.X.X.X.X.X.X.X.X.X.X.X.X.X.$.+. .! P / I I I I I I I I I I I I / P R C m ",
"G F D L P P L K J <.f T R _ _ _ _ E W Q Q Q Q Q ..................................+.O. .P I I I I I I I I I I I I I I I I _ ` m ",
"G D ! P / / P ^ K f <.V C ` ` ` ` Z A S S S S S  .2.3.4.4.4.4.3.2.5.6.7.7.7.7.6.5. . . ./ I I I I I I I I I I I I I I I I _ ` m ",
"G S Q I I I I P L K J B B B B B B g H G G F D S  .3.8.9.9.9.9.8.3.6.0.q.q.q.q.0.6. . . .I I I I I I I I I I I I I I I I I { [ ` ",
"G S Q I I I I / P ^ K Y Y Y Y Y Y H ~ G G D ! Q  .3.8.9.9.9.9.8.3.6.0.q.q.q.q.0.6. . . .I I I I I I I I I I I I I I I I I | { _ ",
"Y A W I I I I I I P L D F G G G G G G F D L P I  .2.3.4.4.4.4.3.2.5.6.7.7.7.7.6.5. . . .P P / I I I I I I I I I I I I I I I I I ",
"B Z E I I I I I I / P ! D G G G G G G D ! P / I  .5.6.7.7.7.7.w.e.3.2.2.3.4.4.3.2. . . .L L P I I I I I I I I I I I I I I I I I ",
"m ` _ I I I I I I I I Q S F D D F G G S Q I I I  .6.0.q.q.q.q.r.t.8.3.3.8.9.9.8.3. . . .K K ^ P / I I I I I I I I I I I I I I I ",
"m ` _ I I I I I I I I Q S D ! ! D G G S Q I I I  .6.0.q.q.q.q.r.t.8.3.3.8.9.9.8.3. . . .J J K L P I I I I I I I I I I I I I I I ",
"m C R P / I I I I / P ) ( L P P L S S ( ) P / I  .5.6.7.7.7.7.w.e.3.2.2.3.4.4.3.2. . . .Z =.-.D ! Q Q Q Q P / I I I I I I / P Q ",
"m V T L P I I I I P L ( ) P / / P Q Q ) ( L P I  .2.3.4.4.e.w.7.7.w.e.3.2.2.3.3.2. . . .E >.,.F D S S S S L P I I I I I I P L S ",
"m B Y D ! Q Q Q Q ) ( L P I I I I I I P L ( ) P  .3.8.9.9.t.r.q.q.r.t.8.3.3.8.8.3. . . .I P L D F G G G G D ! P / I I / P ^ K Y ",
"m B Y F D S S S S ( ) P / I I I I I I / P ) ( L  .3.8.9.9.t.r.q.q.r.t.8.3.3.8.8.3. . . .I / P ! D G G G G F D L P I I P L K J B ",
"m B Y G G G G F D L P I I I I I I I I I I P L L  .2.3.4.4.e.w.7.7.w.e.3.2.2.3.3.2. . . .I I I P L S S S S D F D ! Q Q ! D Y B m ",
"m B Y G G G G D ! P / I I I I I I I I I I / P P  .2.3.4.4.3.2.5.6.7.7.7.7.7.7.6.5. . . .I I I / P Q Q Q Q ! D F D S S D F Y B m ",
"m B Y G G F D L P I I I I I I I I I I I I I I I  .3.8.9.9.8.3.6.0.q.q.q.q.q.q.0.6. . . .I I I I I I I I I P L ,.-.H ~ F D K J B ",
"m B Y G G D ! P / I I I I I I I I I I I I I I I  .3.8.9.9.8.3.6.0.q.q.q.q.q.q.0.6. . .;.I I I I I I I I I / P >.=.g H D ! ^ K Y ",
"B g H F D L P I I I I I I I I I I I I I I I I I  .2.3.4.4.3.2.5.6.7.7.7.7.7.7.6.5. . .:.1.o.o.o.I I I I I I I _ ` V T L P P L S ",
"Y H ~ D ! P / I I I I I I I I I I I I I I I I I  .5.6.7.7.w.e.3.2.2.3.e.w.7.7.6.5. . ...X.o.o.o.I I I I I I I _ ` C R P / / P Q ",
"G F D L P I I I I I I I I I I I I I I I I I I I  .6.0.q.q.r.t.8.3.3.8.t.r.q.q.0.6. . ...X.o.o.o.o.o.I I I / P ' ] [ { I I I I I ",
"G D ! P / I I I I I I I I I I I I I I I I I I I  .6.0.q.q.r.t.8.3.3.8.t.r.q.q.0.6. . ...X.o.o.o.o.o.I I I P L } ' { | I I I I I ",
"G S Q I I I I I I I I I I I I I I I I I I I I I  .5.6.7.7.w.e.3.2.2.3.e.w.7.7.6.5. . ...X.o.o.o.o.o.I | { >.,.S Q I I I I / P Q ",
"G S Q I I I I I I I I I I I I I I I I I I I I I  . . . . . . . . . . . . . . . . . . .+.$.#.%.o.o.o.I { [ =.-.S Q I I I I P L S ",
"G D ! P / I I I I I I I I I I I I I I I I I I I I I  . . . . . . . . . . . . . . . . .O.+.@.#.o.I | { y.u.g H S Q I I I I Q S G ",
"G F D L P I I I I I I I I I I I I I I I I I I I I I  . . . . . . . . . . . . . . . . . . ...X.o.I { [ u.i.H ~ S Q I I I I Q S G ",
"Y H ~ S Q I I I I I I I I I I I I I I I I I I I I I I I I Q S G G D ! P / I I I I I I I I I I | { *.&.Z A S S } ' { | I I Q S G ",
"B g H S Q I I I I I I I I I I I I I I I I I I I I I I I I Q S G G F D L P I I I I I I I I I I { [ &.*.E W Q Q ' ] [ { I I Q S G ",
"m B Y D ! Q Q P / I I I I I I I I I I I I I I I I I I I I Q S G G G G D ! P / I I I I I I | { *.&.[ { I I I I { [ &.*.E W ^ K Y ",
"m B Y F D S S L P I I I I I I I I I I I I I I I I I I I I Q S G G G G F D L P I I I I I I { [ &.*.{ | I I I I | { *.&.Z A K J B ",
"m B Y G G ~ H K ^ P / I I I I I I I I I I I I I I I I I I W A -.,.S S S S L P / P Q Q Q Q ' ] [ { I I I I I I I I { [ =.-.Y B m ",
"m B Y G G H g J K L P I I I I I I I I I I I I I I I I I I E Z =.>.Q Q Q Q P / P L S S S S } ' { | I I I I I I I I | { >.,.Y B m ",
"B J K S S K J <.f K ^ P / I I I I I I I I I I I I I I | { *.&.[ { I I I I I I P L D F F D L P I I I I I I I I I I I I P L T V m ",
"Y K ^ Q Q ^ K f <.J K L P I I I I I I I I I I I I I I { [ &.*.{ | I I I I I I / P ! D D ! P / I I I I I I I I I I I I / P R C m ",
"G S Q I I P L K J <.f K ^ Q Q P / I I I I I I / P W E *.&.[ { I I I I I I I I I I P L L P I I I I I I I I I I I I I I I I E Z B ",
"G S Q I I / P ^ K f <.J K S S L P I I I I I I P L A Z &.*.{ | I I I I I I I I I I / P P / I I I I I I I I I I I I I I I I W A Y ",
"G S Q I I I I P L A Z =.-.F D L P I I I I I I P L K J Z E I I I I I I I I I I I I I I I I I I I I I I I I I I I I I I I I Q S G ",
"G S Q I I I I / P W E >.,.D ! P / I I I I I I / P ^ K A W I I I I I I I I I I I I I I I I I I I I I I I I I I I I I I I I Q S G ",
"Y A W I I I I I I I I Q S S Q I I I I I I I I I I P L ( ) P / I I I I I I I I I I I I / P P / I I I I I I I I I I I I I I Q S G ",
"B Z E I I I I I I I I Q S S Q I I I I I I I I I I / P ) ( L P I I I I I I I I I I I I P L L P I I I I I I I I I I I I I I Q S G ",
"m ` _ I I I I I I I I Q S S Q I I I I I I I I I I I I Q S S Q I I I I I I I I I I I I Q S S Q I I I I I I I I I I I I I I Q S G "
};
