/* XPM */
static char *_2e32c7cbeeb4612fe0ee7d067ee4a64ZuFgl9KgT2qYgRZ4[] = {
/* columns rows colors chars-per-pixel */
"64 64 67 1 ",
"  c None",
". c #211D1D",
"X c #221D1D",
"o c #291F1C",
"O c #381E1F",
"+ c #2B201C",
"@ c #3A241B",
"# c #3C241B",
"$ c #3F231C",
"% c #432519",
"& c #43261A",
"* c #52251D",
"= c #5C2D18",
"- c #6D3116",
"; c #7F3615",
": c #7C3019",
"> c #672023",
", c #6F2222",
"< c #7D2124",
"1 c #7E2124",
"2 c #863814",
"3 c #873814",
"4 c #8F3A13",
"5 c #8B3815",
"6 c #953717",
"7 c #9A3617",
"8 c #9D3916",
"9 c #9A3718",
"0 c #A03F12",
"q c #A43E13",
"w c #882920",
"e c #983C22",
"r c #A84111",
"t c #A84212",
"y c #AC4515",
"u c #A3441D",
"i c #AD4D18",
"p c #B34C1D",
"a c #944936",
"s c #984B35",
"d c #B64F21",
"f c #B75021",
"g c #BF592B",
"h c #B76426",
"j c #B46128",
"k c #BC6F2D",
"l c #C15A2D",
"z c #C86234",
"x c #924F41",
"c c #AC7A51",
"v c #D36C40",
"b c #D46E41",
"n c #D67044",
"m c #DD774C",
"M c #E17B50",
"N c #E27B50",
"B c #CC9242",
"V c #C1995A",
"C c #CCA155",
"Z c #D6A951",
"A c #D7C16C",
"S c #E5CC66",
"D c #EBD76D",
"F c #E0CF72",
"G c #F5EE7B",
"H c #F1EC7D",
"J c #FAFA82",
/* pixels */
"                      NNNNNNNNNNNNNNNNNNNNNNNN                  ",
"                      NNNNNNNNNNNNNNNNNNNNNNNN                  ",
"                  NNNNNNNNNNNNNNNNNNNNNNNNNNNNNNNN              ",
"                  NNNNNNNmnvvvvvvvvvvvvvvnmNNNNNNN              ",
"                NNNNNNNNNnlddddddddddddddlnNNNNNNNNN            ",
"                NNNNNmnvvzprrrrrrrrrrrrrrpzvvnmNNNNN            ",
"              NNNNNNNnlddpyrrrrrrrrrrrrrrypddlnNNNNNNN          ",
"              NNNmnvvzprrrrrrrrrrrrrrrrrrrrrrpzvvnmNNN          ",
"            NNNNNnlddpyrrrrrrrrrrrrrrrrrrrrrrypddlnNNNNN        ",
"            NNNmnzprrrrrrrr04222222222240rrrrrrrrpznmNNN        ",
"          NNNNNnlpyrrrrrrrr4=&&&&&&&&&&=4rrrrrrrryplnNNNNN      ",
"          NNNmnzprrrrrr0422-@..........@-2240rrrrrrpznmNNN      ",
"        NNNNNnlpyrrrrrr4=&&@o..........o@&&=4rrrrrryplnNNNNN    ",
"        NNNmnzprrrrrr04-@..o@&&&&&&&&&&@o..@-40rrrrrrpznmNNN    ",
"        NNNnlpyrrrrrr4=@o..@-2222222222-@..o@=4rrrrrryplnNNN    ",
"        Nmnzprrrrrr04-@o@$O*5rrrrrrrrrr4=&&@o@-40rrrrrrpznmN    ",
"      NNNnlpyrrrrrr4=@o@-:>,6rrrrrrrrrr0422-@o@=4rrrrrryplnNNN  ",
"      Nmnzprrrrrr04-@o@=47117rrrrrrrrrrrrrr4=@o@-40rrrrrrpznmN  ",
"      Nnlpyrrrrrr4=@o@-407117rrrrrrrrrrrrrr04-@o@=4rrrrrryplnN  ",
"      Nvdrrrrrr04-@o@=4rr7117rrrrrrrrrrrrrrrr4=@o@-40rrrrrrdvN  ",
"      Nvdrrrrrr4=@o@-40rr7117rrrrrrrrrrrrrrrr04-@o@=4rrrrrrdvN  ",
"      bzprrrr04-@o@=4rrrr8ww8rrrrrrrrrrq88qrrrr4=@o@-40rrrrpzb  ",
"    Nbgpyrrrr4=@o@-40rrrrq88qrrrrrrrrrr8ww8rrrr04-@o@=4rrrrypgbN",
"    Nvdrrrrrr2&..&2rrrrrrrrrrrrrrrrrrrr7117rrrrrr2&..&2rrrrrrdvN",
"    Nvdrrrrrr2&..&2rrrrrrrrrrrrrrrrrrrr7117rrrrrr2&..&2rrrrrrdvN",
"    Nvdrrrr04-@o@=4rrrrrrrrrrrrrrrrrrrr7117rrrrrr4=@o@-40rrrrdvN",
"    Nvdrrrr4=@o@-40rrrrrrrrrrrrrrrrrrrr7117rrrrrr04-@o@=4rrrrdvN",
"    Nvdrrrr2&..&2rrrrrrrrrrrrrrrrrrrrrr7117rrrrrrrr2&..&2rrrrdvN",
"    Nvdrrrr2&..&2rrrrrrrrrrrrrrrrrrrrrr7117rrrrrrrr2&..&2rrrrdvN",
"    Nvdrrrr2&..&2rrrrrrrrq88qrrrrrrrrrr7117rrrrrrrr2&..&2rrrrdvN",
"    Nvdrrrr2&..&2rrrrrrrr8ww8rrrrrrrrrr7117rrrrrrrr2&..&2rrrrdvN",
"    vzprrrr2&..&2rrrrrrrr7117rrrrrrrrrr8ww8rrrrrrrr2&..&2rrrrpzv",
"    fpyrrrr2&..&2rrrrrrrr7117rrrrrrrrrrq88qrrrrrrrr2&..&2rrrrypd",
"    rrrrrrr2&..&2rrrrrrrr7117rrrrrrrrrrrrrrihkkhirr2&..&2rrrrrrr",
"    rrrrrrr2&..&2rrrrrrrr7117rrrrrrrrrrrrrrhZSSZhrr2&..&2rrrrrrr",
"    rrrrrrr2&..&2rrrrrrrr7117rrrrrrrrrrrrihBDJJDBhi2&..&2rrrrrrr",
"    rrrrrrr2&..&2rrrrrrrr7117rrrrrrrrrrrrhZDGJJGDZh2&..&2rrrrrrr",
"    rrrrrrr2&..&2rrrrrrrr7117rrrrrrrrrrrrkSJJJJJJSk2&..&2rrrrrrr",
"    rrrrrrr2&..&2rrrrrrrr7117rrrrrrrrrrrrkSJJJJJJSk2&..&2rrrrrrr",
"    rrrrrrr2&..&2rrrrrrrr8ww8rrrrrrrrrrrrjCFHJJHFCj2&..&2rrrrrrr",
"    rrrrrrr2&..&2rrrrrrrrq88qrrrrrrrrrrrruscFJJFcsu2&..&2rrrrrrr",
"    rrrrrrr2&..&2rrrrrrrrrrrrrrrrrrrrrrrr8waVAAVaw82&..&2rrrrrrr",
"    rrrrrrr2&..&2rrrrrrrrrrrrrrrrrrrrrrrrq8eaxxae8q2&..&2rrrrrrr",
"    rrrrrrr2&..&2rrrrrrrrrrrrrrrrrrrrrrrrrr8w11w8rr2&..&2rrrrrrr",
"    rrrrrrr2&..&2rrrrrrrrrrrrrrrrrrrrrrrrrrq8778qrr2&..&2rrrrrrr",
"    rrrrrrr2&..&2rrrrrrrrrrrrrrrrrrrrrrq88qrrrrrrrr2&..&2rrrrrrr",
"    rrrrrrr2&..&2rrrrrrrrrrrrrrrrrrrrrr8ww8rrrrrrrr2&..&2rrrrrrr",
"    rrrrrrr2&..&2rrrrrrrrq88qrrrrrrrrrr7117rrrrrrrr2&..&2rrrrrrr",
"    rrrrrrr2&..&2rrrrrrrr8ww8rrrrrrrrrr7117rrrrrrrr2&..&2rrrrrrr",
"    rrrrrrr2&..&2rrrrrrrr7117rrrrrrrrrr7117rrrrrrrr2&..&2rrrrrrr",
"    rrrrrrr2&..&2rrrrrrrr7117rrrrrrrrrr7117rrrrrrrr2&..&2rrrrrrr",
"    rrrrrrr2&..&2rrrrrrrr7117rrrrrrrrrr7117rrrrrrrr2&..&2rrrrrrr",
"    rrrrrrr2&..&2rrrrrrrr7117rrrrrrrrrr7117rrrrrrrr2&..&2rrrrrrr",
"    rrrrrrr2&..&2rrrrrrrr7117rrrrrrrrrr8ww8rrrrrrrr2&..&2rrrrrrr",
"    rrrrrrr2&..&2rrrrrrrr7117rrrrrrrrrrq88qrrrrrrrr2&..&2rrrrrrr",
"    rrrrrrr2&..&2rrrrrrrr7117rrrrrrrrrrrrrrrrrrrrrr2&..&2rrrrrrr",
"    rrrrrrr2&..&2rrrrrrrr7117rrrrrrrrrrrrrrrrrrrrrr2&..&2rrrrrrr",
"    rrrrrrr2&..&2rrrrrrrr7117rrrrrrrrrrq88qrrrrrrrr2&..&2rrrrrrr",
"    rrrrrrr2&..&2rrrrrrrr7117rrrrrrrrrr8ww8rrrrrrrr2&..&2rrrrrrr",
"    rrrrrrr2&..#;rrrrrrrr9119rrrrrrrrrr9119rrrrrrrr;#..&2rrrrrrr",
"    rrrrrrr2&..+                                    +..&2rrrrrrr",
"    rrrrrrr2&...                                    ...&2rrrrrrr",
"                                                                ",
"                                                                "
};
