/* XPM */
static char *_6a56ef9f37f457d80c9033ce6efd12eLUlBcCtrKInP23qj[] = {
/* columns rows colors chars-per-pixel */
"64 64 98 2 ",
"   c #0C1317",
".  c #252427",
"X  c #564646",
"o  c #6F5756",
"O  c #765F63",
"+  c #856E7D",
"@  c #8D768A",
"#  c #E27B50",
"$  c #111B24",
"%  c #232730",
"&  c #484148",
"*  c #5B4E54",
"=  c #5F5056",
"-  c #66555B",
";  c #6A575E",
":  c #6F5D67",
">  c #7B697B",
",  c #806E85",
"<  c #74666C",
"1  c #776872",
"2  c #7D6C7F",
"3  c #7D6C82",
"4  c #75677D",
"5  c #6C5F71",
"6  c #61545D",
"7  c #1A2A3F",
"8  c #202E43",
"9  c #2D374B",
"0  c #333B4F",
"q  c #3E4257",
"w  c #545166",
"e  c #5F586D",
"r  c #7D8599",
"t  c #787B91",
"y  c #6C6982",
"u  c #675F7A",
"i  c #5C5873",
"p  c #464A64",
"a  c #394159",
"s  c #353D52",
"d  c #1F324D",
"f  c #23344F",
"g  c #2A3954",
"h  c #2E3B57",
"j  c #303F5B",
"k  c #354762",
"l  c #43526D",
"z  c #59607C",
"x  c #646783",
"c  c #DD774C",
"v  c #D67044",
"b  c #D36C40",
"n  c #8294AF",
"m  c #7A89A4",
"M  c #6B728E",
"N  c #616380",
"B  c #5C5C79",
"V  c #4F516D",
"C  c #39435E",
"Z  c #404763",
"A  c #4B4E6B",
"S  c #535A76",
"D  c #62708C",
"F  c #6D7E99",
"G  c #74839E",
"H  c #7885A0",
"J  c #C15A2D",
"K  c #B64F21",
"L  c #8090AB",
"P  c #707A96",
"I  c #565672",
"U  c #5A5875",
"Y  c #C86234",
"T  c #B34C1D",
"R  c #A84111",
"E  c #565C78",
"W  c #3B4662",
"Q  c #AC4515",
"!  c #6D7793",
"~  c #9E3E11",
"^  c #8B3812",
"/  c #813512",
"(  c #697B96",
")  c #384A65",
"_  c #502714",
"`  c #331E15",
"'  c #642D14",
"]  c #291C16",
"[  c #4A5D78",
"{  c #6F829D",
"}  c #161617",
"|  c #D46E41",
" . c #BF592B",
".. c #B75021",
"X. c #0C1417",
"o. c #696E8B",
"O. c #737D99",
"+. c black",
/* pixels */
"  . X o o o o o o o o o o o o o o O + @ @ # # # # # # # # # # # # # # # # # # # # # # # # o o o o o o O + @ @ @ @ @ @ + O X .   ",
"$ % & * * * * * * * * = - ; ; ; ; : > , , # # # # # # # # # # # # # # # # # # # # # # # # < < < < < < 1 2 , , , , 3 4 5 6 & % $ ",
"7 8 9 0 0 0 0 0 0 0 0 q w e e e e # # # # # # # # # # # # # # # # # # # # # # # # # # # # # # # # r r t y u u u u i p a s 9 8 7 ",
"d f g h h h h h h j k l z x x x x # # # # # # # c v b b b b b b b b b b b b b b v c # # # # # # # n n m M x x N B V C h h g f d ",
"d g Z A A A A A A S D F G H H # # # # # # # # # v J K K K K K K K K K K K K K K J v # # # # # # # # # L m H H P N I V A A Z g d ",
"d h A U U U U B N M m n n n n # # # # # c v b b Y T R R R R R R R R R R R R R R T Y b b v c # # # # # n n n n H x B N x x E W h ",
"d h A U U U U N P m L n n # # # # # # # v J K K T Q R R R R R R R R R R R R R R Q T K K J v # # # # # # # n n H x N P H H ! E A ",
"h C V U U B N M m n n n n # # # c v b b Y T R R R R R R R R R R R R R R R R R R R R R R T Y b b v c # # # n n G z z G n n m M x ",
"A V I U U N P m L n n # # # # # v J K K T Q R R R R R R R R R R R R R R R R R R R R R R Q T K K J v # # # # # F l l F n n L m H ",
"U B N N B x H n n n n # # # c v Y T R R R R R R R R ~ ^ / / / / / / / / / / ^ ~ R R R R R R R R T Y v c # # # ( ) ) ( n n n n n ",
"U N P P N x H n n # # # # # v J T Q R R R R R R R R ^ _ ` ` ` ` ` ` ` ` ` ` _ ^ R R R R R R R R Q T J v # # # # # ) ( n n n n n ",
"x M m m M M m n n # # # c v Y T R R R R R R ~ ^ / / ' ]                     ] ' / / ^ ~ R R R R R R T Y v c # # # [ { n n n n n ",
"H m L L m m L # # # # # v J T Q R R R R R R ^ _ ` ` ] }                     } ] ` ` _ ^ R R R R R R Q T J v # # # # # n n n n n ",
"n n n n n n n # # # c v Y T R R R R R R ~ ^ ' ]                                     ] ' ^ ~ R R R R R R T Y v c # # # n n n n n ",
"n n n n n n n # # # v J T Q R R R R R R ^ _ ] }                                     } ] _ ^ R R R R R R Q T J v # # # n n n n n ",
"n n n L m m L # c v Y T R R R R R R ~ ^ ' ]                                             ] ' ^ ~ R R R R R R T Y v c # n n n n n ",
"n n n m M # # # v J T Q R R R R R R ^ _ ] }                                             } ] _ ^ R R R R R R Q T J v # # # n n n ",
"n n n H x # c v Y T R R R R R R ~ ^ ' ]                                                     ] ' ^ ~ R R R R R R T Y v c # L m H ",
"n n n H x # v J T Q R R R R R R ^ _ ] }                                                     } ] _ ^ R R R R R R Q T J v # m M x ",
"H m L H x # b K R R R R R R ~ ^ ' ]                                                             ] ' ^ ~ R R R R R R K b # P N U ",
"x M m H x # b K R R R R R R ^ _ ] }                                                             } ] _ ^ R R R R R R K b # N B U ",
"U N P P N | Y T R R R R ~ ^ ' ]                                                                     ] ' ^ ~ R R R R T Y | I V A ",
"U B N # |  .T Q R R R R ^ _ ] }                                                                     } ] _ ^ R R R R Q T  .| # h ",
"U U U # b K R R R R R R / `                                                                             ` / R R R R R R K b # d ",
"U U U # b K R R R R R R / `                                                                             ` / R R R R R R K b # d ",
"U B N # b K R R R R ~ ^ ' ]                                                                             ] ' ^ ~ R R R R K b # d ",
"U N P # b K R R R R ^ _ ] }                                                                             } ] _ ^ R R R R K b # d ",
"U x H # b K R R R R / `                                                                                     ` / R R R R K b # ) ",
"U x H # b K R R R R / `                                                                                     ` / R R R R K b # ( ",
"A z G # b K R R R R / `                                                                                     ` / R R R R K b # n ",
"h l F # b K R R R R / `                                                                                     ` / R R R R K b # n ",
"d ) ( b Y T R R R R / `                                                                                     ` / R R R R T Y b n ",
"d ) ( ..T Q R R R R / `                                                                                     ` / R R R R Q T ..n ",
"d k D R R R R R R R / `                                                                                     ` / R R R R R R R H ",
"d j S R R R R R R R / `                                                                                     ` / R R R R R R R x ",
"d h A R R R R R R R / `                                                                                     ` / R R R R R R R A ",
"d h A R R R R R R R / `                                                                                     ` / R R R R R R R h ",
"d h A R R R R R R R / `                                                                                     ` / R R R R R R R d ",
"d h A R R R R R R R / `                                                                                     ` / R R R R R R R d ",
"d h A R R R R R R R / `                                                                                     ` / R R R R R R R h ",
"d h A R R R R R R R / `                                                                                     ` / R R R R R R R A ",
"h C V R R R R R R R / `                                                                                     ` / R R R R R R R x ",
"A V I R R R R R R R / `                                                                                     ` / R R R R R R R H ",
"U B N R R R R R R R / `                                                                                     ` / R R R R R R R n ",
"U N P R R R R R R R / `                                                                                     ` / R R R R R R R n ",
"U x H R R R R R R R / `                                                                                     ` / R R R R R R R H ",
"U x H R R R R R R R / `                                                                                     ` / R R R R R R R x ",
"U N P R R R R R R R / `                                                                                     ` / R R R R R R R U ",
"U B N R R R R R R R / `                                                                                     ` / R R R R R R R U ",
"A V I R R R R R R R / `                                                                                     ` / R R R R R R R U ",
"h C V R R R R R R R / `                                                                                     ` / R R R R R R R U ",
"d h A R R R R R R R / `                                                                                     ` / R R R R R R R A ",
"d h A R R R R R R R / `                                                                                     ` / R R R R R R R h ",
"d h A R R R R R R R / `                                                                                     ` / R R R R R R R d ",
"d h A R R R R R R R / `                                                                                     ` / R R R R R R R d ",
"h W E R R R R R R R / `                                                                                     ` / R R R R R R R d ",
"A E ! R R R R R R R / `                                                                                     ` / R R R R R R R d ",
"U x H R R R R R R R / `                                                                                     ` / R R R R R R R h ",
"U x H R R R R R R R / `                                                                                     ` / R R R R R R R A ",
"U x H R R R R R R R / `                                                                                     ` / R R R R R R R U ",
"U x H R R R R R R R / `       m L n n n n n n L m ! E z G n n n n n n n n n n n n n n n n n n n n n n       ` / R R R R R R R U ",
"A z G R R R R R R R / `     X.n n n n n n n n n n m M o.O.m L n n n n n n n n n n n n L m m L n n n n X.    ` / R R R R R R R U ",
"h l F n n n n n n n n H x x H n n n n n n n n n n L m O.o.M m n n n n n n n n n n n n m M M m n n n n n n n n n n n n n n H x U ",
"d ) ( n n n n n n n n H x x H n n n n n n n n n n n n H x x H n n n n n n n n n n n n H x x H n n n n n n n n n n n n n n H x U "
};
