/* XPM */
static char *f674ba60f21f43dcd010cdff3ccd4badFhD2tcnEkxZWg4is[] = {
/* columns rows colors chars-per-pixel */
"64 64 29 1 ",
"  c None",
". c #0C1217",
"X c #0C1317",
"o c #0C1417",
"O c #161617",
"+ c #291C16",
"@ c #331E15",
"# c #331F15",
"$ c #502714",
"% c #642D14",
"& c #813512",
"* c #823513",
"= c #8B3812",
"- c #9E3E11",
"; c #A84111",
": c #A84212",
"> c #AC4515",
", c #B34C1D",
"< c #B64F21",
"1 c #B75021",
"2 c #BF592B",
"3 c #C15A2D",
"4 c #C86234",
"5 c #D36C40",
"6 c #D46E41",
"7 c #D67044",
"8 c #DD774C",
"9 c #E17B50",
"0 c #E27B50",
/* pixels */
"                    000000000000000000000000                    ",
"                    000000000000000000000000                    ",
"                00000000000000000000000000000000                ",
"                00000008755555555555555780000000                ",
"              00000000073<<<<<<<<<<<<<<37000000000              ",
"              0000087554,;;;;;;;;;;;;;;,4557800000              ",
"            000000073<<,>;;;;;;;;;;;;;;>,<<370000000            ",
"            00087554,;;;;;;;;;;;;;;;;;;;;;;,45578000            ",
"          0000073<<,>;;;;;;;;;;;;;;;;;;;;;;>,<<3700000          ",
"          000874,;;;;;;;;-=&&&&&&&&&&=-;;;;;;;;,478000          ",
"        0000073,>;;;;;;;;=$@@@@@@@@@@$=;;;;;;;;>,3700000        ",
"        000874,;;;;;;-=&&%+XXXXXXXXXX+%&&=-;;;;;;,478000        ",
"      0000073,>;;;;;;=$@@+OXXXXXXXXXXO+@@$=;;;;;;>,3700000      ",
"      000874,;;;;;;-=%+XXXXXXXXXXXXXXXXXX+%=-;;;;;;,478000      ",
"      00073,>;;;;;;=$+OXXXXXXXXXXXXXXXXXXO+$=;;;;;;>,37000      ",
"      0874,;;;;;;-=%+XXXXXXXXXXXXXXXXXXXXXX+%=-;;;;;;,4780      ",
"    00073,>;;;;;;=$+OXXXXXXXXXXXXXXXXXXXXXXO+$=;;;;;;>,37000    ",
"    0874,;;;;;;-=%+XXXXXXXXXXXXXXXXXXXXXXXXXX+%=-;;;;;;,4780    ",
"    073,>;;;;;;=$+OXXXXXXXXXXXXXXXXXXXXXXXXXXO+$=;;;;;;>,370    ",
"    05<;;;;;;-=%+XXXXXXXXXXXXXXXXXXXXXXXXXXXXXX+%=-;;;;;;<50    ",
"    05<;;;;;;=$+OXXXXXXXXXXXXXXXXXXXXXXXXXXXXXXO+$=;;;;;;<50    ",
"    64,;;;;-=%+XXXXXXXXXXXXXXXXXXXXXXXXXXXXXXXXXX+%=-;;;;,46    ",
"  062,>;;;;=$+OXXXXXXXXXXXXXXXXXXXXXXXXXXXXXXXXXXO+$=;;;;>,260  ",
"  05<;;;;;;&@XXXXXXXXXXXXXXXXXXXXXXXXXXXXXXXXXXXXXX@&;;;;;;<50  ",
"  05<;;;;;;&@XXXXXXXXXXXXXXXXXXXXXXXXXXXXXXXXXXXXXX@&;;;;;;<50  ",
"  05<;;;;-=%+XXXXXXXXXXXXXXXXXXXXXXXXXXXXXXXXXXXXXX+%=-;;;;<50  ",
"  05<;;;;=$+OXXXXXXXXXXXXXXXXXXXXXXXXXXXXXXXXXXXXXXO+$=;;;;<50  ",
"  05<;;;;&@XXXXXXXXXXXXXXXXXXXXXXXXXXXXXXXXXXXXXXXXXX@&;;;;<50  ",
"  05<;;;;&@XXXXXXXXXXXXXXXXXXXXXXXXXXXXXXXXXXXXXXXXXX@&;;;;<50  ",
"  05<;;;;&@XXXXXXXXXXXXXXXXXXXXXXXXXXXXXXXXXXXXXXXXXX@&;;;;<50  ",
"  05<;;;;&@XXXXXXXXXXXXXXXXXXXXXXXXXXXXXXXXXXXXXXXXXX@&;;;;<50  ",
"  54,;;;;&@XXXXXXXXXXXXXXXXXXXXXXXXXXXXXXXXXXXXXXXXXX@&;;;;,45  ",
"  1,>;;;;&@XXXXXXXXXXXXXXXXXXXXXXXXXXXXXXXXXXXXXXXXXX@&;;;;>,1  ",
"  ;;;;;;;&@XXXXXXXXXXXXXXXXXXXXXXXXXXXXXXXXXXXXXXXXXX@&;;;;;;;  ",
"  ;;;;;;;&@XXXXXXXXXXXXXXXXXXXXXXXXXXXXXXXXXXXXXXXXXX@&;;;;;;;  ",
"  ;;;;;;;&@XXXXXXXXXXXXXXXXXXXXXXXXXXXXXXXXXXXXXXXXXX@&;;;;;;;  ",
"  ;;;;;;;&@XXXXXXXXXXXXXXXXXXXXXXXXXXXXXXXXXXXXXXXXXX@&;;;;;;;  ",
"  ;;;;;;;&@XXXXXXXXXXXXXXXXXXXXXXXXXXXXXXXXXXXXXXXXXX@&;;;;;;;  ",
"  ;;;;;;;&@XXXXXXXXXXXXXXXXXXXXXXXXXXXXXXXXXXXXXXXXXX@&;;;;;;;  ",
"  ;;;;;;;&@XXXXXXXXXXXXXXXXXXXXXXXXXXXXXXXXXXXXXXXXXX@&;;;;;;;  ",
"  ;;;;;;;&@XXXXXXXXXXXXXXXXXXXXXXXXXXXXXXXXXXXXXXXXXX@&;;;;;;;  ",
"  ;;;;;;;&@XXXXXXXXXXXXXXXXXXXXXXXXXXXXXXXXXXXXXXXXXX@&;;;;;;;  ",
"  ;;;;;;;&@XXXXXXXXXXXXXXXXXXXXXXXXXXXXXXXXXXXXXXXXXX@&;;;;;;;  ",
"  ;;;;;;;&@XXXXXXXXXXXXXXXXXXXXXXXXXXXXXXXXXXXXXXXXXX@&;;;;;;;  ",
"  ;;;;;;;&@XXXXXXXXXXXXXXXXXXXXXXXXXXXXXXXXXXXXXXXXXX@&;;;;;;;  ",
"  ;;;;;;;&@XXXXXXXXXXXXXXXXXXXXXXXXXXXXXXXXXXXXXXXXXX@&;;;;;;;  ",
"  ;;;;;;;&@XXXXXXXXXXXXXXXXXXXXXXXXXXXXXXXXXXXXXXXXXX@&;;;;;;;  ",
"  ;;;;;;;&@XXXXXXXXXXXXXXXXXXXXXXXXXXXXXXXXXXXXXXXXXX@&;;;;;;;  ",
"  ;;;;;;;&@XXXXXXXXXXXXXXXXXXXXXXXXXXXXXXXXXXXXXXXXXX@&;;;;;;;  ",
"  ;;;;;;;&@XXXXXXXXXXXXXXXXXXXXXXXXXXXXXXXXXXXXXXXXXX@&;;;;;;;  ",
"  ;;;;;;;&@XXXXXXXXXXXXXXXXXXXXXXXXXXXXXXXXXXXXXXXXXX@&;;;;;;;  ",
"  ;;;;;;;&@XXXXXXXXXXXXXXXXXXXXXXXXXXXXXXXXXXXXXXXXXX@&;;;;;;;  ",
"  ;;;;;;;&@XXXXXXXXXXXXXXXXXXXXXXXXXXXXXXXXXXXXXXXXXX@&;;;;;;;  ",
"  ;;;;;;;&@XXXXXXXXXXXXXXXXXXXXXXXXXXXXXXXXXXXXXXXXXX@&;;;;;;;  ",
"  ;;;;;;;&@XXXXXXXXXXXXXXXXXXXXXXXXXXXXXXXXXXXXXXXXXX@&;;;;;;;  ",
"  ;;;;;;;&@XXXXXXXXXXXXXXXXXXXXXXXXXXXXXXXXXXXXXXXXXX@&;;;;;;;  ",
"  ;;;;;;;&@XXXXXXXXXXXXXXXXXXXXXXXXXXXXXXXXXXXXXXXXXX@&;;;;;;;  ",
"  ;;;;;;;&@XXXXXXXXXXXXXXXXXXXXXXXXXXXXXXXXXXXXXXXXXX@&;;;;;;;  ",
"  ;;;;;;;&@XXXXXXXXXXXXXXXXXXXXXXXXXXXXXXXXXXXXXXXXXX@&;;;;;;;  ",
"  ;;;;;;;&@XXXXXXXXXXXXXXXXXXXXXXXXXXXXXXXXXXXXXXXXXX@&;;;;;;;  ",
"  ;;;;;;;&@XXX                                    XXX@&;;;;;;;  ",
"  ;;;;;;;&@XXo                                    oXX@&;;;;;;;  ",
"                                                                ",
"                                                                "
};
