/* XPM */
static char *_35cd2965ebe48a2dc1c93167f74fbfabVwIcWcxNOrzb0u0[] = {
/* columns rows colors chars-per-pixel */
"64 64 102 2 ",
"   c #0C1317",
".  c #111B24",
"X  c #1A2A3F",
"o  c #252427",
"O  c #232730",
"+  c #1F324D",
"@  c #202E43",
"#  c #23344F",
"$  c #2D374B",
"%  c #333B4F",
"&  c #2A3954",
"*  c #2E3B57",
"=  c #353D52",
"-  c #303F5B",
";  c #3E4257",
":  c #35405C",
">  c #394159",
",  c #39435E",
"<  c #354762",
"1  c #3B4662",
"2  c #384A65",
"3  c #3D4B67",
"4  c #484148",
"5  c #564646",
"6  c #5B4E54",
"7  c #5F5056",
"8  c #6F5756",
"9  c #66555B",
"0  c #61545D",
"q  c #6A575E",
"w  c #404763",
"e  c #464A64",
"r  c #404E69",
"t  c #464D6A",
"y  c #4B4E6B",
"u  c #43526D",
"i  c #4F516D",
"p  c #545166",
"a  c #5F586D",
"s  c #445772",
"d  c #485974",
"f  c #4A5D78",
"g  c #515571",
"h  c #565672",
"j  c #535A76",
"k  c #5C5873",
"l  c #5A5875",
"z  c #565C78",
"x  c #5C5C79",
"c  c #6F5D67",
"v  c #765F63",
"b  c #615A70",
"n  c #655E77",
"m  c #6C5F71",
"M  c #675F7A",
"N  c #59607C",
"B  c #5E617D",
"V  c #74666C",
"C  c #776872",
"Z  c #796C76",
"A  c #71657B",
"S  c #75677D",
"D  c #7B697B",
"F  c #7D6C7F",
"G  c #856E7D",
"H  c #5A6B87",
"J  c #5D6F8A",
"K  c #616380",
"L  c #646783",
"P  c #6C6982",
"I  c #6E6B85",
"U  c #656C88",
"Y  c #696E8B",
"T  c #7D6C82",
"R  c #62708C",
"E  c #65738E",
"W  c #6B728E",
"Q  c #687692",
"!  c #6D7793",
"~  c #697B96",
"^  c #6D7E99",
"/  c #707A96",
"(  c #787B91",
")  c #737D99",
"_  c #806E85",
"`  c #837288",
"'  c #8D768A",
"]  c #857889",
"[  c #887A90",
"{  c #8A7D93",
"}  c #6F829D",
"|  c #74839E",
" . c #7D819B",
".. c #7D8599",
"X. c #7F879C",
"o. c #7885A0",
"O. c #7A89A4",
"+. c #7C8EA9",
"@. c #838BA2",
"#. c #858CA6",
"$. c #8090AB",
"%. c #8294AF",
/* pixels */
"  o 5 8 8 8 8 8 8 8 8 8 8 8 8 8 8 v G ' ' ' ' ' ' ' ' ' ' ' ' ' ' ' ' ' ' ' ' ' ' G v 8 8 8 8 8 8 8 8 v G ' ' ' ' ' ' G v 5 o   ",
". O 4 6 6 6 6 6 6 6 6 7 9 q q q q c D _ _ _ _ _ _ _ _ T S A A A A A A S T ` [ { { ] Z V V V V V V V V C F _ _ _ _ T S m 0 4 O . ",
"X @ $ % % % % % % % % ; p a a a a b n M M M M M M M M k e , , , , , , e k I  .#.#.@.X.................( P M M M M k e > = $ @ X ",
"+ # & * * * * * * - < u N L L L L L L L L L L K x l l i , * * * * * * 1 z W O.%.%.%.%.%.%.%.%.%.%.%.%.O.W L L K x i , * * & # + ",
"+ & w y y y y y y j R ^ | o.o.o.o.o.o.o.o.o.o./ K l l h i y y y y y y z ! O.$.%.%.%.%.%.%.%.%.%.%.%.%.$.O.o.o./ K h i y y w & + ",
"+ * y l l l l x K W O.%.%.%.%.%.%.%.%.%.%.%.%.O.W K x l l l l l l x K W O.%.%.%.%.%.%.%.%.%.%.%.%.%.%.%.%.%.%.o.L x K L L z 1 * ",
"+ * y l l l l K / O.$.%.%.%.%.%.%.%.%.%.%.%.%.$.O./ K l l l l l l K / O.$.%.%.%.%.%.%.%.%.%.%.%.%.%.%.%.%.%.%.o.L K / o.o.! z y ",
"* , i l l x K W O.%.%.%.%.%.%.%.%.%.%.%.%.%.%.%.%.O.W K x l l x K W O.%.%.%.%.%.%.%.%.%.%.%.%.%.%.%.%.%.%.%.%.| N N | %.%.O.W L ",
"y i h l l K / O.$.%.%.%.%.%.%.%.%.%.%.%.%.%.%.%.%.$.O./ K l l K / O.$.%.%.%.%.%.%.%.%.%.%.%.%.%.%.%.%.%.%.%.%.^ u u ^ %.%.$.O.o.",
"l x K K x L o.%.%.%.%.%.%.%.%.%.%.%.%.%.%.%.%.%.%.%.%.O.W L L Y ) O.$.%.%.%.%.%.%.%.%.%.%.%.%.%.%.%.%.%.%.%.%.~ 2 2 ~ %.%.%.%.%.",
"l K / / K L o.%.%.%.%.%.%.%.%.%.%.%.%.%.%.%.%.%.%.%.%.$.O.o.o.) Y W O.%.%.%.%.%.%.%.%.%.%.%.%.%.%.%.%.%.%.%.%.~ 2 2 ~ %.%.%.%.%.",
"L W O.O.W W O.%.%.%.%.%.%.%.%.%.%.%.%.%.%.%.%.%.%.%.%.%.%.%.%.o.L L o.%.%.%.%.%.%.%.%.%.%.%.%.%.%.%.%.%.%.$.O.Q d f } %.%.%.%.%.",
"o.O.$.$.O.O.$.%.%.%.%.%.%.%.%.%.%.%.%.%.%.%.%.%.%.%.%.%.%.%.%.o.L L o.%.%.%.%.%.%.%.%.%.%.%.%.%.%.%.%.%.%.O.W U Q } +.%.%.%.%.%.",
"%.%.%.%.%.%.%.%.%.%.%.%.%.%.%.%.%.%.%.%.%.%.%.%.%.%.%.%.%.%.%.O.W W O.%.%.%.%.%.%.%.%.%.%.%.%.%.%.%.%.$.O./ K L o.%.%.%.%.%.%.%.",
"%.%.%.%.%.%.%.%.%.%.%.%.%.%.%.%.%.%.%.%.%.%.%.%.%.%.%.%.%.%.%.$.O.O.$.%.%.%.%.%.%.%.%.%.%.%.%.%.%.%.%.O.W K x L o.%.%.%.%.%.%.%.",
"%.%.%.$.O.O.$.%.%.%.%.%.%.%.%.%.%.%.%.%.%.%.%.%.%.%.%.%.%.%.%.%.%.%.%.%.%.%.%.%.%.%.%.%.%.%.%.%.%.$.O./ K l l L o.%.%.%.%.%.%.%.",
"%.%.%.O.W W O.%.%.%.%.%.%.%.%.%.%.%.%.%.%.%.%.%.%.%.%.%.%.%.%.%.%.%.%.%.%.%.%.%.%.%.%.%.%.%.%.%.%.O.W K x l l L o.%.%.%.%.%.%.%.",
"%.%.%.o.L L o.%.%.%.%.%.%.%.%.%.%.%.%.%.%.%.%.%.%.%.%.%.%.%.%.$.O.o.o.O.$.%.%.%.%.%.%.%.%.%.%.$.O.) Y L L L L U Q } +.%.%.$.O.o.",
"%.%.%.o.L L o.%.%.%.%.%.%.%.%.%.%.%.%.%.%.%.%.%.%.%.%.%.%.%.%.O.W L L W O.%.%.%.%.%.%.%.%.%.%.O.W Y ) o.o.o.o.Q d f } %.%.O.W L ",
"o.O.$.o.L K / O.$.%.%.%.%.%.%.%.%.%.%.%.%.%.%.%.%.%.%.%.%.$.O./ K l l K / O.$.%.%.%.%.%.%.+.} Q U W O.%.%.%.%.} f s J ^ | / K l ",
"L W O.o.L x K W O.%.%.%.%.%.%.%.%.%.%.%.%.%.%.%.%.%.%.%.%.O.W K x l l x K W O.%.%.%.%.%.%.} f d Q O.$.%.%.%.%.+.} J s u N K x l ",
"l K / / K h i z ! O.$.%.%.%.%.%.%.%.%.%.%.%.%.%.%.%.%.$.O.) Y L L L L L L W O.$.O.o.o.o.o.Q d f } %.%.%.%.%.%.%.%.} f r g h i y ",
"l x K K x i , 1 z W O.%.%.%.%.%.%.%.%.%.%.%.%.%.%.%.%.O.W Y ) o.o.o.o.o.o.O.$.O.W L L L L U Q } +.%.%.%.%.%.%.%.%.+.} E B i , * ",
"l l l x K z 1 : e z ! O.$.%.%.%.%.%.%.%.%.%.%.%.%.$.O.) Y W O.%.%.%.%.%.%.%.%.O.W K x x K W O.%.%.%.%.%.%.%.%.%.%.%.%.O.W j - + ",
"l l l K / ! z e : 1 z W O.%.%.%.%.%.%.%.%.%.%.%.%.O.W Y ) O.$.%.%.%.%.%.%.%.%.$.O./ K K / O.$.%.%.%.%.%.%.%.%.%.%.%.%.$.O.R < + ",
"l x K W O.O.W z 1 : e j R ~ ~ ~ ~ ^ | o.o.o.o.o.o.) Y W O.%.%.%.%.%.%.%.%.%.%.%.%.O.W W O.%.%.%.%.%.%.%.%.%.%.%.%.%.%.%.%.~ 2 + ",
"l K / O.$.$.O.! z e : - < 2 2 2 2 u N L L L L L L Y ) O.$.%.%.%.%.%.%.%.%.%.%.%.%.$.O.O.$.%.%.%.%.%.%.%.%.%.%.%.%.%.%.%.%.~ 2 + ",
"l L o.%.%.%.%.O.W z 1 * * * * * * , i l l x K L L W O.%.%.%.%.%.%.%.%.%.%.%.%.%.%.%.%.%.%.%.%.%.%.%.%.%.%.%.%.%.%.%.%.%.%.} f 2 ",
"l L o.%.%.%.%.$.O.! z y y y y y y i h l l K / o.o.O.$.%.%.%.%.%.%.%.%.%.%.%.%.%.%.%.%.%.%.%.%.%.%.%.%.%.%.%.%.%.%.%.%.%.%.+.} ~ ",
"y N | %.%.%.%.%.%.O.W K x l l l l l l x K W O.%.%.%.%.%.%.%.%.%.%.%.%.%.%.%.%.%.%.%.%.$.O.O.$.%.%.%.%.%.%.%.%.%.%.%.%.%.%.%.%.%.",
"* u ^ %.%.%.%.%.%.$.O./ K l l l l l l K / O.$.%.%.%.%.%.%.%.%.%.%.%.%.%.%.%.%.%.%.%.%.O.W W O.%.%.%.%.%.%.%.%.%.%.%.%.%.%.%.%.%.",
"+ 2 ~ %.%.%.%.%.%.%.%.o.L x K K x l l L o.%.%.%.%.%.%.%.%.%.%.%.%.%.%.%.%.%.%.%.%.$.O.! z z ! O.$.%.%.%.%.%.%.%.%.%.%.%.%.%.%.%.",
"+ 2 ~ %.%.%.%.%.%.%.%.o.L K / / K l l L o.%.%.%.%.%.%.%.%.%.%.%.%.%.%.%.%.%.%.%.%.O.W z 1 1 z W O.%.%.%.%.%.%.%.%.%.%.%.%.%.%.%.",
"+ < R O.$.%.%.%.%.$.O.) Y W O.O.W L L Y ) O.$.%.%.%.%.%.%.%.%.%.%.%.%.%.%.%.%.$.O.) Y N u r g K / o.o.o.o.O.$.%.%.%.%.%.%.$.O.o.",
"+ - j W O.%.%.%.%.O.W Y ) O.$.$.O.o.o.) Y W O.%.%.%.%.%.%.%.%.%.%.%.%.%.%.%.%.O.W Y ) | ^ E B x K L L L L W O.%.%.%.%.%.%.O.W L ",
"+ * y K / o.o.o.o.) Y W O.%.%.%.%.%.%.O.W Y ) O.$.%.%.%.%.%.%.%.%.$.O.O.$.%.%.O.W W O.%.%.O.W K x l l l l K / O.$.%.%.$.O.! z y ",
"+ * y x K L L L L Y ) O.$.%.%.%.%.%.%.$.O.) Y W O.%.%.%.%.%.%.%.%.O.W W O.%.%.$.O.O.$.%.%.$.O./ K l l l l x K W O.%.%.O.W z 1 * ",
"+ * y l l l l x K W O.%.%.%.%.%.%.%.%.%.%.O.W W O.%.%.%.%.%.%.$.O.) Y W O.%.%.%.%.%.%.%.%.%.%.O.W L L L L K x K / o.o./ K y * + ",
"+ * y l l l l K / O.$.%.%.%.%.%.%.%.%.%.%.$.O.O.$.%.%.%.%.%.%.O.W Y ) O.$.%.%.%.%.%.%.%.%.%.%.$.O.o.o.o.o./ K x K L L K x y * + ",
"+ * y l l x K W O.%.%.%.%.%.%.%.%.%.%.%.%.%.%.%.%.$.O.o.o.| ^ Q U W O.%.%.%.%.%.%.%.%.%.%.%.%.%.%.%.%.%.%.O.W B g i h x K z 1 * ",
"+ * y l l K / O.$.%.%.%.%.%.%.%.%.%.%.%.%.%.%.%.%.O.W L L N u d Q O.$.%.%.%.%.%.%.%.%.%.%.%.%.%.%.%.%.%.%.$.O.E r , i K / ! z y ",
"* , i x K W O.%.%.%.%.%.%.%.%.%.%.%.%.%.%.%.%.%.%.O.W L L j - 2 ~ %.%.%.%.%.%.%.%.%.%.%.%.%.%.%.%.%.%.%.%.%.%.~ 2 - j W O.O.W L ",
"y i h K / O.$.%.%.%.%.%.%.%.%.%.%.%.%.%.%.%.%.%.%.$.O.o.o.R < 2 ~ %.%.%.%.%.%.%.%.%.%.%.%.%.%.%.%.%.%.%.%.%.%.~ 2 < R O.$.$.O.o.",
"l x K W O.%.%.%.%.%.%.%.%.%.%.%.%.%.%.%.%.%.%.%.%.%.%.%.%.~ 2 2 ~ %.%.%.%.%.%.%.%.%.%.%.%.%.%.%.%.%.%.%.%.$.O.Q d f } %.%.%.%.%.",
"l K / O.$.%.%.%.%.%.%.%.%.%.%.%.%.%.%.%.%.%.%.%.%.%.%.%.%.~ 2 2 ~ %.%.%.%.%.%.%.%.%.%.%.%.%.%.%.%.%.%.%.%.O.W U Q } +.%.%.%.%.%.",
"l L o.%.%.%.%.%.%.%.%.%.%.%.%.%.%.%.%.%.%.%.%.%.%.%.%.%.%.^ u u ^ %.%.%.%.%.%.%.%.%.%.%.%.%.%.%.%.%.%.+.} E B L o.%.%.%.%.$.O.o.",
"l L o.%.%.%.%.%.%.%.%.%.%.%.%.%.%.%.%.%.%.%.%.%.%.%.%.%.%.| N N | %.%.%.%.%.%.%.%.%.%.%.%.%.%.%.%.%.%.} f r g L o.%.%.%.%.O.W L ",
"l K / O.$.%.%.%.%.%.%.%.%.%.%.%.%.%.%.%.%.%.%.%.%.%.%.%.%.o.L K / O.$.%.%.%.%.%.%.%.%.%.%.%.%.%.%.+.} H 3 , i L o.%.%.%.%.o.L l ",
"l x K W O.%.%.%.%.%.%.%.%.%.%.%.%.%.%.%.%.%.%.%.%.%.%.%.%.o.L x K W O.%.%.%.%.%.%.%.%.%.%.%.%.%.%.} f 3 t i h L o.%.%.%.%.o.L l ",
"y i h L o.%.%.%.%.%.%.%.%.%.%.%.%.%.%.%.%.%.%.%.%.%.%.%.%.o.L l l K / O.$.%.%.%.%.%.%.%.%.%.%.+.} J s u N L L U Q } +.%.%.o.L l ",
"* , i L o.%.%.%.%.%.%.%.%.%.%.%.%.%.%.%.%.%.%.%.%.%.%.%.%.o.L l l x K W O.%.%.%.%.%.%.%.%.%.%.} f s J ^ | o.o.Q d f } %.%.o.L l ",
"+ * y K / o.o.O.$.%.%.%.%.%.%.%.%.%.%.%.%.%.%.%.%.%.%.%.%.o.L l l l l K / O.$.%.%.%.%.%.%.+.} J s f } %.%.%.%.} f s J ^ | ! z y ",
"+ * y x K L L W O.%.%.%.%.%.%.%.%.%.%.%.%.%.%.%.%.%.%.%.%.o.L l l l l x K W O.%.%.%.%.%.%.} f s J } +.%.%.%.%.+.} J s u N z 1 * ",
"+ * y l l h i z ! O.$.%.%.%.%.%.%.%.%.%.%.%.%.%.%.%.%.%.%.| N g B L L L L W O.$.O.o.o.o.o.Q d f } %.%.%.%.%.%.%.%.} f r g y * + ",
"+ * y l l i , 1 z W O.%.%.%.%.%.%.%.%.%.%.%.%.%.%.%.%.%.%.^ u r E o.o.o.o.O.$.O.W L L L L U Q } +.%.%.%.%.%.%.%.%.+.} E B y * + ",
"* 1 z L L z 1 : e z ! O.$.%.%.%.%.%.%.%.%.%.%.%.%.%.%.+.} J s f } %.%.%.%.%.%.O.W K x x K W O.%.%.%.%.%.%.%.%.%.%.%.%.O.W j - + ",
"y z ! o.o.! z e : 1 z W O.%.%.%.%.%.%.%.%.%.%.%.%.%.%.} f s J } +.%.%.%.%.%.%.$.O./ K K / O.$.%.%.%.%.%.%.%.%.%.%.%.%.$.O.R < + ",
"l L o.%.%.O.W z 1 : e z ! o.o.O.$.%.%.%.%.%.%.$.O.| ^ J s f } %.%.%.%.%.%.%.%.%.%.O.W W O.%.%.%.%.%.%.%.%.%.%.%.%.%.%.%.%.^ u * ",
"l L o.%.%.$.O.! z e : 1 z L L W O.%.%.%.%.%.%.O.W N u s J } +.%.%.%.%.%.%.%.%.%.%.$.O.O.$.%.%.%.%.%.%.%.%.%.%.%.%.%.%.%.%.| N y ",
"l L o.%.%.%.%.O.W N u r g x K W O.%.%.%.%.%.%.O.W z 1 u ^ %.%.%.%.%.%.%.%.%.%.%.%.%.%.%.%.%.%.%.%.%.%.%.%.%.%.%.%.%.%.%.%.o.L l ",
"l L o.%.%.%.%.$.O.| ^ E B K / O.$.%.%.%.%.%.%.$.O.! z N | %.%.%.%.%.%.%.%.%.%.%.%.%.%.%.%.%.%.%.%.%.%.%.%.%.%.%.%.%.%.%.%.o.L l ",
"y N | %.%.%.%.%.%.%.%.o.L L o.%.%.%.%.%.%.%.%.%.%.O.W Y ) O.$.%.%.%.%.%.%.%.%.%.%.%.%.$.O.O.$.%.%.%.%.%.%.%.%.%.%.%.%.%.%.o.L l ",
"* u ^ %.%.%.%.%.%.%.%.o.L L o.%.%.%.%.%.%.%.%.%.%.$.O.) Y W O.%.%.%.%.%.%.%.%.%.%.%.%.O.W W O.%.%.%.%.%.%.%.%.%.%.%.%.%.%.o.L l ",
"+ 2 ~ %.%.%.%.%.%.%.%.o.L L o.%.%.%.%.%.%.%.%.%.%.%.%.o.L L o.%.%.%.%.%.%.%.%.%.%.%.%.o.L L o.%.%.%.%.%.%.%.%.%.%.%.%.%.%.o.L l "
};
