/* XPM */
static char *_326ca0b7eb04a31ddd2bcb5a871a987HY5RtwZfzQH3sBwx[] = {
/* columns rows colors chars-per-pixel */
"64 64 253 2 ",
"   c #0C1317",
".  c #252427",
"X  c #564646",
"o  c #6F5756",
"O  c #765F63",
"+  c #856E7D",
"@  c #8D768A",
"#  c #111B24",
"$  c #232730",
"%  c #484148",
"&  c #5B4E54",
"*  c #5F5056",
"=  c #66555B",
"-  c #6A575E",
";  c #6F5D67",
":  c #7B697B",
">  c #806E85",
",  c #7D6C82",
"<  c #75677D",
"1  c #71657B",
"2  c #837288",
"3  c #887A90",
"4  c #8A7D93",
"5  c #857889",
"6  c #796C76",
"7  c #74666C",
"8  c #776872",
"9  c #7D6C7F",
"0  c #6C5F71",
"q  c #61545D",
"w  c #1A2A3F",
"e  c #202E43",
"r  c #2D374B",
"t  c #333B4F",
"y  c #3E4257",
"u  c #545166",
"i  c #5F586D",
"p  c #615A70",
"a  c #655E77",
"s  c #675F7A",
"d  c #5C5873",
"f  c #464A64",
"g  c #39435E",
"h  c #6E6B85",
"j  c #7D819B",
"k  c #858CA6",
"l  c #838BA2",
"z  c #7F879C",
"x  c #7D8599",
"c  c #787B91",
"v  c #6C6982",
"b  c #394159",
"n  c #353D52",
"m  c #1F324D",
"M  c #23344F",
"N  c #2A3954",
"B  c #2E3B57",
"V  c #303F5B",
"C  c #354762",
"Z  c #43526D",
"A  c #59607C",
"S  c #646783",
"D  c #616380",
"F  c #5C5C79",
"G  c #5A5875",
"H  c #4F516D",
"J  c #3B4662",
"K  c #565C78",
"L  c #6B728E",
"P  c #7A89A4",
"I  c #8294AF",
"U  c #404763",
"Y  c #4B4E6B",
"T  c #535A76",
"R  c #62708C",
"E  c #6D7E99",
"W  c #74839E",
"Q  c #7885A0",
"!  c #707A96",
"~  c #565672",
"^  c #6D7793",
"/  c #8090AB",
"(  c #DFFAFD",
")  c #DAF5F9",
"_  c #D2ECF4",
"`  c #CCE4F0",
"'  c #BED3E5",
"]  c #B0C2DC",
"[  c #AABAD8",
"{  c #A6B6D4",
"}  c #C5DBEA",
"|  c #B0C2DB",
" . c #696E8B",
".. c #737D99",
"X. c #A9BBD7",
"o. c #697B96",
"O. c #384A65",
"+. c #B6CAE0",
"@. c #687692",
"#. c #485974",
"$. c #4A5D78",
"%. c #6F829D",
"&. c #7C889F",
"*. c #91A0B4",
"=. c #BBD0DD",
"-. c #8693AC",
";. c #9BA9C5",
":. c #656C88",
">. c #7C8EA9",
",. c #292D35",
"<. c #4C535F",
"1. c #484F5D",
"2. c #A0AFCE",
"3. c #97A4C2",
"4. c #939EBC",
"5. c #7B819F",
"6. c #6D6F8E",
"7. c #A2B0CA",
"8. c #C0D5E5",
"9. c #848CAA",
"0. c #686987",
"q. c #7E85A1",
"w. c #5F5E7B",
"e. c #9EACCF",
"r. c #595677",
"t. c #55547A",
"y. c #54537C",
"u. c #95A0BE",
"i. c #717593",
"p. c #96A2C1",
"a. c #919EC6",
"s. c #6065A4",
"d. c #4A4988",
"f. c #55537B",
"g. c #4C4C84",
"h. c #777D9B",
"j. c #445772",
"k. c #5D6F8A",
"l. c #767B99",
"z. c #8992B0",
"x. c #848EB5",
"c. c #696EA7",
"v. c #595C97",
"b. c #565685",
"n. c #6C6F94",
"m. c #5B5F9E",
"M. c #6B6E8B",
"N. c #7B84B4",
"B. c #6A70A3",
"V. c #AEC0D8",
"C. c #484788",
"Z. c #828CB3",
"A. c #6A6C8C",
"S. c #8890AE",
"D. c #404E69",
"F. c #515571",
"G. c #96A4CA",
"H. c #7881B5",
"J. c #838EBC",
"K. c #B2C6DE",
"L. c #5B5FA0",
"P. c #65738E",
"I. c #5E617D",
"U. c #35405C",
"Y. c #B4C7DF",
"T. c #8C98C3",
"R. c #D0E8F2",
"E. c #8E99B6",
"W. c #696B89",
"Q. c #605F7C",
"!. c #C9DFED",
"~. c #BACEE3",
"^. c #A5AEC8",
"/. c #A69FAF",
"(. c #968B9A",
"). c #716B84",
"_. c #A77466",
"`. c #A15E46",
"'. c #6D6881",
"]. c #938898",
"[. c #A698A3",
"{. c #B0A5AB",
"}. c #C6BEBA",
"|. c #A6827F",
" X c #A75736",
".X c #A84111",
"XX c #6D5968",
"oX c #945C4F",
"OX c #A75E42",
"+X c #AB6244",
"@X c #B26B49",
"#X c #A8481D",
"$X c #7C646E",
"%X c #994D30",
"&X c #988791",
"*X c #A3583C",
"=X c #776C83",
"-X c #FF4D00",
";X c #DE663A",
":X c #A88E96",
">X c #F8753A",
",X c #E88157",
"<X c #CA9287",
"1X c #A8909A",
"2X c #807A91",
"3X c #A3B1CF",
"4X c #A0A9C6",
"5X c #EBB498",
"6X c #E7B49B",
"7X c #D37557",
"8X c #9792AA",
"9X c #F7783F",
"0X c #F1986E",
"qX c #E4D9CD",
"wX c #E7CEBE",
"eX c #E86735",
"rX c #BB9B9F",
"tX c #9FA5C1",
"yX c #93869C",
"uX c #E0EEEC",
"iX c #ECAE8E",
"pX c #F96D2F",
"aX c #ED622B",
"sX c #C19593",
"dX c #9A99B4",
"fX c #918298",
"gX c #FD5810",
"hX c #F95510",
"jX c #8E7A8F",
"kX c #9C9CB6",
"lX c #93859B",
"zX c #8F7B90",
"xX c #9EA1BE",
"cX c #5A6B87",
"vX c #3D4B67",
"bX c #A0A6C3",
"nX c #968FA8",
"mX c #8D7F98",
"MX c #807090",
"NX c #7B698B",
"BX c #9CA3C0",
"VX c #898099",
"CX c #806F86",
"ZX c #464D6A",
"AX c #8C90B5",
"SX c #67659B",
"DX c #554F8E",
"FX c #767591",
"GX c #67607B",
"HX c #55589C",
"JX c #41418F",
"KX c #484993",
"LX c black",
/* pixels */
"  . X o o o o o o o o o o o o o o O + @ @ @ @ @ @ @ @ @ @ @ @ @ @ @ @ @ @ @ @ @ @ + O o o o o o o o o O + @ @ @ @ @ @ + O X .   ",
"# $ % & & & & & & & & * = - - - - ; : > > > > > > > > , < 1 1 1 1 1 1 < , 2 3 4 4 5 6 7 7 7 7 7 7 7 7 8 9 > > > > , < 0 q % $ # ",
"w e r t t t t t t t t y u i i i i p a s s s s s s s s d f g g g g g g f d h j k k l z x x x x x x x x c v s s s s d f b n r e w ",
"m M N B B B B B B V C Z A S S S S S S S S S S D F G G H g B B B B B B J K L P I I I I I I I I I I I I P L S S D F H g B B N M m ",
"m N U Y Y Y Y Y Y T R E W Q Q Q Q Q Q Q Q Q Q ! D G G ~ H Y Y Y Y Y Y K ^ P / I I I I I I I I I I I I / P Q Q ! D ~ H Y Y U N m ",
"m B Y G G G G F D L P I I I I I I I I I I I I P L D F G G G G G G F D L P I ( ( ( ( I I I I I I I I I I I I I Q S F D S S K J B ",
"m B Y G G G G D ! P / I I I I I I I I I I I I / P ! D G G G G G G D ! P / I ( ) _ ` I I I I I I I I I I I I I Q S D ! Q Q ^ K Y ",
"B g H G G F D L P I I I I I I I I I I I I I I I I P L D F G G F D L P I ( ( ( _ ' ] [ { I I I I I I I I I I I W A A W I I P L S ",
"Y H ~ G G D ! P / I I I I I I I I I I I I I I I I / P ! D G G D ! P / I ( ) _ } | { { { I I I I I I I I I I I E Z Z E I I / P Q ",
"G F D D F S Q I I I I I I I I I I I I I I I I I I I I P L S S  ...P ( ( ( _ ' | X.{ { { { { I I I I I I I I I o.O.O.o.I I I I I ",
"G D ! ! D S Q I I I I I I I I I I I I I I I I I I I I / P Q Q .. .L ) ) _ } | { { { { { { { I I I I I I I I I o.O.O.o.I I I I I ",
"S L P P L L P I I I I I I I I I I I I I I I I I I I I I I I I Q { +._ _ ' | X.{ { { { { { { I I I I I I I / P @.#.$.%.I I I I I ",
"Q P / / P P / I I I I I I I I I I I I I I I I I I I I I I I I Q &.*.=.=.*.&.&.-.;.{ { { { { I I I I I I I P L :.@.%.>.I I I I I ",
"I I I I I I I I I I I I I I I I I I I I I I I I I I I I I I I P ,.<.*.*.<.,.,.1.-.{ { { { { I I I I I / P ! D S Q I I I I I I I ",
"I I I I I I I I I I I I I I I I I I I I I I I I I I I I I I I / ,.<.*.*.<.,.,.1.-.2.3.4.4.4.I I I I I P L D F S Q I I I I I I I ",
"I I I / P P / I I I I I I I I I I I I I I I I I I I I I I I I I &.*.=.=.*.&.&.-.;.3.5.6.6.6.I I I / P ! D G G S Q I I I I I I I ",
"I I I P L L P I I I I I I I I I I I I I I I I I I I I I I I I I 4.7.8.8.7.4.4.4.4.9.0.G G G I I I P L D F G G S Q I I I I I I I ",
"I I I Q S S Q I I I I I I I I I I I I I I I I I I I I I { { I / 6.q.7.7.q.6.6.6.6.0.w.G G G I / P .. .S { { S :.@.%.>.I I / P Q ",
"I I I Q S S Q I I I I I I I I I I I I I I I I I I I I I e.e.I P r.6.4.4.6.G G G G G G r.t.y.I P L  ...Q u.4.Q @.#.$.%.I I P L S ",
"Q P / Q S D ! P / I I I I I I I I I I I I I I I { 4.6.i.p.a.s.d.f.6.4.4.6.G G G G G G t.g.d.%.@.r.6.4.u.h.6.I %.$.j.k.E W ! D G ",
"S L P Q S F D L P I I I I I I I I I I I I I I I { 3.5.l.z.x.c.v.b.n.;.;.n.f.f.f.f.f.f.b.v.m.$.#.M.l.z.z.l.i.I >.%.k.j.Z A D F G ",
"G D ! ! D ~ H K ^ P / I I I I I I I I I I I { { { 2.3.z.l.l.x.N.v.B.V.V.B.C.C.C.C.C.C.v.N.Z.A.M.S.z.l.l.z.p.e.{ I %.$.D.F.~ H Y ",
"G F D D F H g J K L P I I I I I I I I I I I { { { { { 3.5.5.3.G.H.J.+.K.H.L.L.L.L.L.L.c.x.z.l.l.z.z.l.5.3.{ { { I >.%.P.I.H g B ",
"G G G F D K J U.f K ^ P / I I I I I I I I I { { { { { 2.3.3.2.X.K.+.Y.X.G.T.T.T.T.T.T.x.l.l.z.z.l.l.z.3.2.{ { { { { I P L T V m ",
"G G G D ! ^ K f U.J K L P I I I I I I I I I { { { 2.3.3.2.{ { K.R.R.K.{ { { { { { { { 4.6.6.4.3.5.5.3.{ { { { { { { I / P R C m ",
"G F D L P P L K J U.f T R o.o.o.o.E W Q Q Q { { { 3.5.5.3.{ { K.R.R.K.{ { { { { { { { 4.6.6.4.2.3.3.2.{ { { { { { { I I I o.O.m ",
"G D ! P / / P ^ K f U.V C O.O.O.O.Z A S S S { { { 4.6.6.4.{ { K.R.R.K.{ { { { { { { { 4.6.6.4.{ { { { { { { { { { { I I I o.O.m ",
"G S Q I I I I P L K J B B B B B B g H G G F D S { 4.6.6.4.{ { K.R.R.K.{ { { { { { { { 4.6.6.4.{ { { { { { { { { I I I I I %.$.O.",
"G S Q I I I I / P ^ K Y Y Y Y Y Y H ~ G G D ! Q { E.W.0.9.3.2.K.R.R.K.{ { { { { { { { 3.5.l.z.4.4.3.2.{ { 2.3.u.I I I I I >.%.o.",
"Y A W I I I I I I P L D F G G G G G G F D L P I I I Q.w.0.5.3.K.R.R.K.{ { { { { { { { 2.3.z.l.6.6.5.3.{ { 3.5.h.u.{ I I I I I I ",
"B Z E I I I I I I / P ! D G G G G G G D ! P / I I I r.G G 6.4.| } !.~.| X.{ { { { { { ^./.(.).G G i.p.2.3.z.l.5.3.{ I I I I I I ",
"m O.o.I I I I I I I I Q S F D D F G G S Q I I I r.r.r.G G 6.4.X.| ~.!.} | { { { { { { /._.`.^ P / I e.3.5.l.z.3.2.{ I I I I I I ",
"m O.o.I I I I I I I I Q S D ! ! D G G S Q I I I G G G G G '.].[.[.{.}.}.{.[.[.[.[.[.[.|. X.XK L P I { u.h.5.3.{ { { I I I I I I ",
"m C R P / I I I I / P .. .L P P L S S  ...P / I G G G G G XXoXOXOX+X@X@X+XOXOXOXOXOXOX X#X.XF.D ! Q Q Q u.3.2.{ { { I I I / P Q ",
"m V T L P I I I I P L  ...P / / P Q Q .. .L P I r.G G w.0.$X%X.X.X.X.X.X.X.X.X.X.X.X.X#X XOXI.F D S S S 4.4.4.4.4.4.I I I P L S ",
"m B Y D ! Q Q Q Q .. .L P I I I I I I P L  .r.r.r.G G 0.9.&X*X.X.X.X.X.X.X.X.X.X.X.X.X X|.[.L D F G G G 6.6.6.6.6.6.I / P ^ K Y ",
"m B Y F D S S S S  ...P / I I I I I I / P ..=X0.w.G G 6.4./._.OXOXOXOXOXOXOXOXOXOXOXOX_./.{ P ! D G G G 6.6.6.6.6.i.I P L K J B ",
"m B Y G G G G F D L P I I I I I I I I I -X;X:X9.0.G G 6.4.^./.[.[.[.[.[.[.[.[.[.[.[.[./.^.{ { { L S S S 4.4.4.4.4.p.e.{ D Y B m ",
"m B Y G G G G D ! P / I I I I I I I I I >X,X<X1X2XW.Q.i.p.3X4X4X3X{ { { { { { 3X4X4X3X{ { { { { P Q Q Q { { { { { { { { F Y B m ",
"m B Y G G F D L P I I I I I I I I I -X>X5X6X,X7X1XE.P Q e.4X8X8X4X{ { { { { { 4X8X8X4X{ { { { { { { I I { { { { { { ~ F D K J B ",
"m B Y G G D ! P / I I I I I I I I I 9X0XqXwX9XeXrX{ L S { tXyXyXtX{ { { { { { tXyXyXtX{ { { { { { { I I 4.3.2.{ { { H D ! ^ K Y ",
"B g H F D L P I I I I I I I I I I I wXqXuXwX9XeXrX{ L S { tXyXyXtX{ { { { { { tXyXyXtX{ { { { { { { I I 6.5.3.{ { { T L P P L S ",
"Y H ~ D ! P / I I I I I I I I I I I ( uXqXiXpXaXsX{ P Q tXdXfXfXdX4X3X{ { 3X4XdXfXfXdX4X3X{ { { { { I I 6.5.3.{ { { R P / / P Q ",
"G F D L P I I I I I I I I I I I ( ( ( qX0XpXgXhXI I I I yXfXjXjXfX8X4X{ { 4X8XfXjXjXfX8X4X{ { { { { I I 4.3.2.{ { { %.I I I I I ",
"G D ! P / I I I I I I I I I I I ( ( ( wX9X-X-X-XI I I I yXyXyXfXjXfXdXtXtXkXlX@ @ @ @ fXdXtXtXtXtXtXI I { { { { { { >.I I I I I ",
"G S Q I I I I I I I I I I I ( ( ( ( I I I I I I I I I I tXtXtXdXfXjXfXyXyXlXI I @ @ @ jXfXyXyXyXyXyXI >.%.P.{ { { { I I I / P Q ",
"G S Q I I I I I I I I I I I ( ( ( ( I I I I I I I I I I { { { tXyX@ @ @ @ @ I I @ zXfXyXyXyXyXfXjX@ I %.$.D.{ { { { I I I P L S ",
"G D ! P / I I I I I I I ( ( ( ( I I I I I I I I I I I I I Q { tXyX@ @ @ @ @ I I I I xXtXtXtXtXdXfX@ %.cXvXg H S Q I I I I Q S G ",
"G F D L P I I I I I I I ( ( ( ( I I I I I I I I I I I I I Q { bXnXmXMXNXNXNXI I I I { { { { { BXVXCX$.vXZXH ~ S Q I I I I Q S G ",
"Y H ~ S Q I I I I I ( ( ( ( I I I I I I I I I I I I I I I Q S G bXAXSXDXDXDXI I I I { { { { { u.FXGXj.Z A S S :.@.%.>.I I Q S G ",
"B g H S Q I I I I I ( ( ( ( I I I I I I I I I I I I I I I Q S G T.H.HXJXJXJXI I I I { e.p.4.4.z.l.i.k.E W Q Q @.#.$.%.I I Q S G ",
"m B Y D ! Q Q P ( ( ( ( I I I I I I I I I I I I I I I I I Q S G L.HXKXJXJXJX/ I I I I I i.6.6.l.z.p.e.{ I I I %.$.j.k.E W ^ K Y ",
"m B Y F D S S L ( ( ( ( I I I I I I I I I I I I I I I I I Q S G JXJXJXJXJXJXP I I I I I r.Q.W.5.3.{ { { I I I >.%.k.j.Z A K J B ",
"m B Y G G ~ ( ( ( ( / I I I I I I I I I I I I I I I I I I W A F.JXJXJXJXJXJXP / P Q Q Q Q @.E.3.2.{ { { I I I I I %.$.D.F.Y B m ",
"m B Y G G H ( ( ( ( P I I I I I I I I I I I I I I I I I I E Z D.JXJXJXJXJXJX/ P L S S S S :.{ { { { { { I I I I I >.%.P.I.Y B m ",
"B J K S ( ( ( ( f K ^ P / I I I I I I I I I I I I I I >.%.k.j.$.JXJXJXJXJXJXI P L D F F D L { { { { { { I I I I I I I P L T V m ",
"Y K ^ Q ( ( ( ( U.J K L P I I I I I I I I I I I I I I %.$.j.k.%.JXJXJXJXJXJXI / P ! D D ! P { { { { { { I I I I I I I / P R C m ",
"G S Q I ( ( L K J U.f K ^ Q Q P / I I I I I I / P W E k.j.$.JXJXJXJXJXJXJXJXI I I P L L P I { { { { { { I I I I I I I I I E Z B ",
"G S Q I ( ( P ^ K f U.J K S S L P I I I I I I P L A Z j.k.%.JXJXJXJXJXJXJXJXI I I / P P / I { { { { { { I I I I I I I I I W A Y ",
"G S Q I I I I P L A Z D.F.F D L P I I I I I I P L K J Z E I I I I I I I I I I I I I I I I I { { { { { { I I I I I I I I I Q S G ",
"G S Q I I I I / P W E P.I.D ! P / I I I I I I / P ^ K A W I I I I I I I I I I I I I I I I I { { { { { { I I I I I I I I I Q S G ",
"Y A W I I I I I I I I Q S S Q I I I I I I I I I I P L  ...P / I I I I I I I I I I I I / P P / I I I I I I I I I I I I I I Q S G ",
"B Z E I I I I I I I I Q S S Q I I I I I I I I I I / P .. .L P I I I I I I I I I I I I P L L P I I I I I I I I I I I I I I Q S G ",
"m O.o.I I I I I I I I Q S S Q I I I I I I I I I I I I Q S S Q I I I I I I I I I I I I Q S S Q I I I I I I I I I I I I I I Q S G "
};
