/* XPM */
static char *_dfc0f9f54db47e3dde1c933f6c283d0t1MrAXA9snErSs8S[] = {
/* columns rows colors chars-per-pixel */
"64 64 184 2 ",
"   c None",
".  c #292D35",
"X  c #484F5D",
"o  c #4C535F",
"O  c #5A5775",
"+  c #595677",
"@  c #585777",
"#  c #5B5776",
"$  c #595875",
"%  c #5A5875",
"&  c #54527B",
"*  c #55537B",
"=  c #55547A",
"-  c #54537C",
";  c #5F5E7B",
":  c #6D5968",
">  c #605F7C",
",  c #7C646E",
"<  c #67607B",
"1  c #A84111",
"2  c #A8481D",
"3  c #994D30",
"4  c #A75736",
"5  c #A3583C",
"6  c #FF4D00",
"7  c #F95510",
"8  c #FD5810",
"9  c #DE663A",
"0  c #ED622B",
"q  c #F96D2F",
"w  c #E86735",
"e  c #F8753A",
"r  c #F7783F",
"t  c #945C4F",
"y  c #A75D41",
"u  c #A75E42",
"i  c #A15E46",
"p  c #AB6244",
"a  c #B26B49",
"s  c #A77466",
"d  c #D37557",
"f  c #A6827F",
"g  c #E88157",
"h  c #F1986E",
"j  c #4C4C84",
"k  c #41418F",
"l  c #42428F",
"z  c #43438F",
"x  c #484788",
"c  c #484888",
"v  c #4A4988",
"b  c #554F8E",
"n  c #565685",
"m  c #484993",
"M  c #595C97",
"N  c #55589C",
"B  c #5B5F9E",
"V  c #6D6881",
"C  c #686987",
"Z  c #696B89",
"A  c #6B6E8B",
"S  c #6A6C8C",
"D  c #6D6F8D",
"F  c #6D6F8E",
"G  c #776C83",
"H  c #716B84",
"J  c #7A698B",
"K  c #7B698B",
"L  c #6C6F94",
"P  c #67659B",
"I  c #717593",
"U  c #767591",
"Y  c #767B99",
"T  c #75799A",
"R  c #777D9B",
"E  c #5B5FA0",
"W  c #6065A4",
"Q  c #696EA7",
"!  c #6A70A3",
"~  c #806F86",
"^  c #8E758A",
"/  c #8D768A",
"(  c #8D768B",
")  c #8E768A",
"_  c #8E7A8F",
"`  c #807090",
"'  c #807A91",
"]  c #8F7B90",
"[  c #8D7F98",
"{  c #7B819F",
"}  c #7C889F",
"|  c #7E85A1",
" . c #7881B5",
".. c #7A83B6",
"X. c #7B84B4",
"o. c #898099",
"O. c #988791",
"+. c #918298",
"@. c #928299",
"#. c #93859B",
"$. c #93869C",
"%. c #938898",
"&. c #968B9A",
"*. c #A88E96",
"=. c #A8909A",
"-. c #BB9B9F",
";. c #848CAA",
":. c #968FA8",
">. c #8693AC",
",. c #8890AE",
"<. c #9792AA",
"1. c #828CB3",
"2. c #848EB5",
"3. c #838EBC",
"4. c #8992B0",
"5. c #8C90B5",
"6. c #8E99B6",
"7. c #9A99B4",
"8. c #9C9CB6",
"9. c #929EBC",
"0. c #939EBC",
"q. c #A698A3",
"w. c #A69FAF",
"e. c #91A0B4",
"r. c #94A0BE",
"t. c #95A0BE",
"y. c #9EA1BE",
"u. c #B0A5AB",
"i. c #CA9287",
"p. c #C19593",
"a. c #ECAE8E",
"s. c #E7B49B",
"d. c #EBB498",
"f. c #C6BEBA",
"g. c #E6CEBD",
"h. c #E7CEBE",
"j. c #8C98C3",
"k. c #919EC6",
"l. c #96A2C1",
"z. c #97A4C2",
"x. c #9CA3C0",
"c. c #9FA5C1",
"v. c #9FA6C2",
"b. c #9BA9C5",
"n. c #9BAAC7",
"m. c #96A4CA",
"M. c #9FAECC",
"N. c #9EACCF",
"B. c #A0A6C3",
"V. c #A0A9C6",
"C. c #A5AEC8",
"Z. c #A0AFCE",
"A. c #A2B0CA",
"S. c #A3B1CF",
"D. c #A5B5D4",
"F. c #A6B6D4",
"G. c #A9B9D6",
"H. c #A9BBD7",
"J. c #AABAD8",
"K. c #AEC0D8",
"L. c #B0C2DB",
"P. c #B0C2DC",
"I. c #B2C6DE",
"U. c #B3C6DE",
"Y. c #B4C7DF",
"T. c #BBD0DD",
"R. c #B6CAE0",
"E. c #BACEE3",
"W. c #BED3E5",
"Q. c #E4D9CD",
"!. c #C0D5E5",
"~. c #C5DBEA",
"^. c #C9DFED",
"/. c #CCE4F0",
"(. c #D0E8F2",
"). c #D2ECF4",
"_. c #D3ECF4",
"`. c #DAF4F9",
"'. c #DAF5F9",
"]. c #DEF9FC",
"[. c #DEF9FD",
"{. c #DEFAFC",
"}. c #DFFAFD",
"|. c #E0EEEC",
/* pixels */
"                                                                                                                                ",
"                                                                                                                                ",
"                                                                                                                                ",
"                                                                                                                                ",
"                                                                        }.}.}.}.                                                ",
"                                                                        }.'.)./.                                                ",
"                                                                    }.}.}.).W.P.J.F.                                            ",
"                                                                    }.'.).~.L.F.F.F.                                            ",
"                                                                }.}.}.).W.L.H.F.F.F.F.F.                                        ",
"                                                                '.'.).~.L.F.F.F.F.F.F.F.                                        ",
"                                                            F.R.).).W.L.H.F.F.F.F.F.F.F.                                        ",
"                                                            } e.T.T.e.} } >.b.F.F.F.F.F.                                        ",
"                                                            . o e.e.o . . X >.F.F.F.F.F.                                        ",
"                                                            . o e.e.o . . X >.Z.z.0.0.0.                                        ",
"                                                            } e.T.T.e.} } >.b.z.{ F F F                                         ",
"                                                            0.A.!.!.A.0.0.0.0.;.C % % %                                         ",
"                                                    F.F.    F | A.A.| F F F F C ; % % %             F.F.                        ",
"                                                    N.N.    + F 0.0.F % % % % % % + = -             t.0.                        ",
"                                            F.0.F I l.k.W v * F 0.0.F % % % % % % = j v     + F 0.t.R F                         ",
"                                            F.z.{ Y 4.2.Q M n L b.b.L * * * * * * n M B     A Y 4.4.Y I                         ",
"                                        F.F.F.Z.z.4.Y Y 2.X.M ! K.K.! x x x x x x M X.1.S A ,.4.Y Y 4.l.N.F.                    ",
"                                        F.F.F.F.F.z.{ { z.m. .3.R.I. .E E E E E E Q 2.4.Y Y 4.4.Y { z.F.F.F.                    ",
"                                        F.F.F.F.F.Z.z.z.Z.H.I.R.Y.H.m.j.j.j.j.j.j.2.Y Y 4.4.Y Y 4.z.Z.F.F.F.F.F.                ",
"                                        F.F.F.Z.z.z.Z.F.F.I.(.(.I.F.F.F.F.F.F.F.F.0.F F 0.z.{ { z.F.F.F.F.F.F.F.                ",
"                                        F.F.F.z.{ { z.F.F.I.(.(.I.F.F.F.F.F.F.F.F.0.F F 0.Z.z.z.Z.F.F.F.F.F.F.F.                ",
"                                        F.F.F.0.F F 0.F.F.I.(.(.I.F.F.F.F.F.F.F.F.0.F F 0.F.F.F.F.F.F.F.F.F.F.F.                ",
"                                            F.0.F F 0.F.F.I.(.(.I.F.F.F.F.F.F.F.F.0.F F 0.F.F.F.F.F.F.F.F.F.                    ",
"                                            F.6.Z C ;.z.Z.I.(.(.I.F.F.F.F.F.F.F.F.z.{ Y 4.0.0.z.Z.F.F.Z.z.t.                    ",
"                                                > ; C { z.I.(.(.I.F.F.F.F.F.F.F.F.Z.z.4.Y F F { z.F.F.z.{ R t.F.                ",
"                                                + % % F 0.L.~.^.E.L.H.F.F.F.F.F.F.C.w.&.H % % I l.Z.z.4.Y { z.F.                ",
"                                            + + + % % F 0.H.L.E.^.~.L.F.F.F.F.F.F.w.s i         N.z.{ Y 4.z.Z.F.                ",
"                                            % % % % % V %.q.q.u.f.f.u.q.q.q.q.q.q.f 4 1         F.t.R { z.F.F.F.                ",
"                                            % % % % % : t u u p a a p u u u u u u 4 2 1             t.z.Z.F.F.F.                ",
"                                            + % % ; C , 3 1 1 1 1 1 1 1 1 1 1 1 1 2 4 u             0.0.0.0.0.0.                ",
"                                        + + + % % C ;.O.5 1 1 1 1 1 1 1 1 1 1 1 1 4 f q.            F F F F F F                 ",
"                                        G C ; % % F 0.w.s u u u u u u u u u u u u s w.F.            F F F F F I                 ",
"                                    6 9 *.;.C % % F 0.C.w.q.q.q.q.q.q.q.q.q.q.q.q.w.C.F.F.F.        0.0.0.0.0.l.N.F.            ",
"                                    e g i.=.' Z > I l.S.V.V.S.F.F.F.F.F.F.S.V.V.S.F.F.F.F.F.        F.F.F.F.F.F.F.F.            ",
"                                6 e d.s.g d =.6.    N.V.<.<.V.F.F.F.F.F.F.V.<.<.V.F.F.F.F.F.F.F.    F.F.F.F.F.F.                ",
"                                r h Q.h.r w -.F.    F.c.$.$.c.F.F.F.F.F.F.c.$.$.c.F.F.F.F.F.F.F.    0.z.Z.F.F.F.                ",
"                                h.Q.|.h.r w -.F.    F.c.$.$.c.F.F.F.F.F.F.c.$.$.c.F.F.F.F.F.F.F.    F { z.F.F.F.                ",
"                                }.|.Q.a.q 0 p.F.    c.7.+.+.7.V.S.F.F.S.V.7.+.+.7.V.S.F.F.F.F.F.    F { z.F.F.F.                ",
"                            }.}.}.Q.h q 8 7         $.+._ _ +.<.V.F.F.V.<.+._ _ +.<.V.F.F.F.F.F.    0.z.Z.F.F.F.                ",
"                            }.}.}.h.r 6 6 6         $.$.$.+._ +.7.c.c.8.#./ / / / +.7.c.c.c.c.c.    F.F.F.F.F.F.                ",
"                        }.}.}.}.                    c.c.c.7.+._ +.$.$.#.    / / / _ +.$.$.$.$.$.        F.F.F.F.                ",
"                        }.}.}.}.                    F.F.F.c.$./ / / / /     / ] +.$.$.$.$.+._ /         F.F.F.F.                ",
"                    }.}.}.}.                            F.c.$./ / / / /         y.c.c.c.c.7.+./                                 ",
"                    }.}.}.}.                            F.B.:.[ ` K K K         F.F.F.F.F.x.o.~                                 ",
"                }.}.}.}.                                    B.5.P b b b         F.F.F.F.F.t.U <                                 ",
"                }.}.}.}.                                    j. .N k k k         F.N.l.0.0.4.Y I                                 ",
"            }.}.}.}.                                        E N m k k k             I F F Y 4.l.N.F.                            ",
"            }.}.}.}.                                        k k k k k k             + > Z { z.F.F.F.                            ",
"        }.}.}.}.                                            k k k k k k                 6.z.Z.F.F.F.                            ",
"        }.}.}.}.                                            k k k k k k                 F.F.F.F.F.F.                            ",
"    }.}.}.}.                                                k k k k k k                 F.F.F.F.F.F.                            ",
"    }.}.}.}.                                                k k k k k k                 F.F.F.F.F.F.                            ",
"    }.}.                                                k k k k k k k k                 F.F.F.F.F.F.                            ",
"    }.}.                                                k k k k k k k k                 F.F.F.F.F.F.                            ",
"                                                                                        F.F.F.F.F.F.                            ",
"                                                                                        F.F.F.F.F.F.                            ",
"                                                                                                                                ",
"                                                                                                                                ",
"                                                                                                                                ",
"                                                                                                                                "
};
