/* XPM */
static char *d2dd0ed900e6447986af08122d5b419bvkVsCGjXWNlUhtZj[] = {
/* columns rows colors chars-per-pixel */
"64 64 204 2 ",
"   c None",
".  c #0C1317",
"X  c #111518",
"o  c #1C1A1B",
"O  c #211D1D",
"+  c #252122",
"@  c #252124",
"#  c #282324",
"$  c #282524",
"%  c #2C282D",
"&  c #2D292F",
"*  c #2E2B31",
"=  c #2F2C33",
"-  c #352E31",
";  c #322E34",
":  c #333030",
">  c #363432",
",  c #373532",
"<  c #333035",
"1  c #393137",
"2  c #3A3735",
"3  c #3C3A37",
"4  c #3C3B37",
"5  c #36333E",
"6  c #3B3938",
"7  c #3F3D39",
"8  c #403F3F",
"9  c #43413B",
"0  c #41403E",
"q  c #47453E",
"w  c #3A3743",
"e  c #3D3945",
"r  c #3E3B45",
"t  c #403942",
"y  c #433C47",
"u  c #493E46",
"i  c #473E49",
"p  c #413E4E",
"a  c #434241",
"s  c #454441",
"d  c #4A4840",
"f  c #4D4C42",
"g  c #494945",
"h  c #4E4E47",
"j  c #464448",
"k  c #4A494A",
"l  c #4C4C48",
"z  c #504F47",
"x  c #50444D",
"c  c #51504F",
"v  c #54534C",
"b  c #55564E",
"n  c #434052",
"m  c #454254",
"M  c #484455",
"N  c #49465A",
"B  c #4C495F",
"V  c #5E4F5A",
"C  c #555452",
"Z  c gray34",
"A  c #595951",
"S  c #5B5C5C",
"D  c #5E5F5E",
"F  c #606155",
"G  c #646457",
"H  c #60615D",
"J  c #64665D",
"K  c #6F6F5E",
"L  c #4F4D64",
"P  c #554F63",
"I  c #524F66",
"U  c #535166",
"Y  c #585764",
"T  c #56546F",
"R  c #595368",
"E  c #5C546A",
"W  c #5B5A69",
"Q  c #5F5F6B",
"!  c #5E5C72",
"~  c #5A5875",
"^  c #5D5A76",
"/  c #5E5C77",
"(  c #615360",
")  c #645561",
"_  c #685A6B",
"`  c #605A73",
"'  c #6C5E70",
"]  c #645E79",
"[  c #675F7A",
"{  c #626260",
"}  c #646562",
"|  c #646565",
" . c #676965",
".. c #696B61",
"X. c #6B6C64",
"o. c #6C6E64",
"O. c #65656D",
"+. c #696A6A",
"@. c #6C6D6C",
"#. c #6D6F6C",
"$. c #6F716D",
"%. c #72756B",
"&. c #70716E",
"*. c #616074",
"=. c #626274",
"-. c #646474",
";. c #6E6F73",
":. c #676679",
">. c #66657A",
",. c #6A6A7B",
"<. c #6D6D79",
"1. c #766374",
"2. c #796576",
"3. c #73657B",
"4. c #70657E",
"5. c #7D6B7F",
"6. c #727471",
"7. c #737573",
"8. c #747672",
"9. c #757773",
"0. c #727475",
"q. c #767970",
"w. c #787A73",
"e. c #7B7E72",
"r. c #797B75",
"t. c #7B7E77",
"y. c #7D7F77",
"u. c #7A7C7E",
"i. c #7F8277",
"p. c #7E817A",
"a. c #808377",
"s. c #8A8C76",
"d. c #808379",
"f. c #80827A",
"g. c #828779",
"h. c #82857C",
"j. c #83867C",
"k. c #868978",
"l. c #868A7B",
"z. c #84887E",
"x. c #93957F",
"c. c #776981",
"v. c #767780",
"b. c #797B82",
"n. c #806E85",
"m. c #867083",
"M. c #837086",
"N. c #8A7489",
"B. c #8D768A",
"V. c #7D8083",
"C. c #808381",
"Z. c #878B80",
"A. c #868A82",
"S. c #898C80",
"D. c #888D80",
"F. c #8A8E87",
"G. c #898D88",
"H. c #8D9180",
"J. c #8C9083",
"K. c #8D9285",
"L. c #8C9186",
"P. c #8D9289",
"I. c #919582",
"U. c #909587",
"Y. c #919787",
"T. c #979A84",
"R. c #9C9F86",
"E. c #949989",
"W. c #979B89",
"Q. c #959B8C",
"!. c #969C8C",
"~. c #989D8C",
"^. c #999F8E",
"/. c #989D90",
"(. c #9BA08E",
"). c #9CA28E",
"_. c #9DA390",
"`. c #9EA490",
"'. c #A3A78D",
"]. c #A6AA8D",
"[. c #A1A792",
"{. c #A5A892",
"}. c #A4AA95",
"|. c #A7AD97",
" X c #AEB294",
".X c #AEB299",
"XX c #B2B696",
"oX c #B1B69B",
"OX c #B2B79B",
"+X c #B2B89E",
"@X c #B6BBA1",
"#X c #B7BCA0",
"$X c #B8BDA0",
"%X c #BAC0A2",
"&X c #BBC1A2",
"*X c #BDC2A2",
"=X c #BFC4A4",
"-X c #C1C7A7",
";X c #C4CAA9",
":X c #C8CDA9",
">X c #C8CEAB",
",X c #CCD2AD",
"<X c #CFD5B0",
"1X c #D3D9B2",
/* pixels */
"1X1X1X1X1X1X1X;X|.K.9.+.+.9.K.^.^.^.^.^.^.K.9.h.$X1X1X1X1X1X1X;X|.e.7 f ].1X1X1X1X1X1X;X|.K.9.9.K.|.;X1X1X;X|.K.9.9.K.^.^.^.^.^.",
"1X1X1X1X1X1X1X;X|.U.p.6.@.9.K.^.^.^.^.^.^.U.p.H.%X1X1X1X1X1X1X;X|.g.b G  X1X1X1X1X1X1X;X|.U.p.h.(.+X>X1X1X>X+X(.h.p.U.^.^.^.^.^.",
"1X1X1X1X1X1X1X;X|.!.U.z.6.9.K.^.^.^.^.^.^.!.U.`.-X1X1X1X1X1X1X;X|.U.g.I.*X1X1X1X1X1X1X;X|.!.U.(.#X>X<X1X1X<X>X#X(.U.!.^.^.^.^.^.",
";X>X<X1X1X<X>X%X}.^.^.K.9.@.q.g.U.^.^.!.U.K.K.(.#X>X<X1X1X<X>X#X(.U.!.}.%X>X<X1X1X<X>X%X}.^.^.|.;X1X1X1X1X1X1X;X|.!.U.U.!.^.^.^.",
"|.+X>X1X1X>X+X}._.^.^.K.9.D g b g.^.^.U.p.9.9.h.(.+X>X1X1X>X+X(.h.p.U._.}.+X>X1X1X>X+X}._.^.^.|.;X1X1X1X1X1X1X;X|.U.p.p.U.^.^.^.",
"K.(.#X;X;X%X}.^.^.!.U.f.} C z G I.|.|.(.h.6.@.6.z.(.#X;X;X#X(.z.6.6.z.U.!.}.%X;X;X%X}.U.g.g.U.}.%X>X<X1X1X<X>X#X(.z.6.6.z.K.K.K.",
"9.h.(.|.|.}._.^.^.U.p.} a z s. X*X;X;X#X(.z.6.@.6.h.(.|.|.(.h.6.@.@.6.p.U._.}.|.|.}._.g.b b g._.}.+X>X1X1X>X+X(.h.6.@.@.6.9.9.9.",
"+.9.K.^.^.^.^.^.^.S. .C z K XX1X1X1X1X>X+X(.h.6.@.6.z.K.K.Z.t.9.9.6.@.6.z.U.!.^.^.!.U.%.3 7 e.^.^.}.%X;X;X#X(.z.6.+.+.+.+.+.+.+.",
"+.9.K.^.^.^.^.^.^.a.l z s.XX>X1X1X1X1X<X>X#X(.z.6.@.6.9.9.t.Z.K.K.z.6.@.6.p.U.^.^.U.p.H > 7 e.^.^._.}.|.|.(.h.6.@.+.+.+.+.+.+.+.",
"+.r.^.|.|.|.|.[.W.%.3 f ].1X1X1X1X1X1X1X1X;X|.U.p.6.@.&.y.H.`.}._.U.p.6.@.6.z.K.K.z.6.Z : 3 %.U.!.^.^.!.U.z.6.&.y.f.r.6.@.+.+.+.",
"+.f..X;X;X;X;XoXS.H > f ].1X1X1X1X1X1X1X1X;X|.!.U.z.6.y.{.%X-X%X}.!.U.z.6.@.6.9.9.6.@.Z : > H p.U.^.^.U.p.6.@.y.{..X^.z.6.+.+.+.",
"h.W.=X1X1X1X1X=XW.X.2 d R.>X<X1X1X1X1X<X>X%X}.^.^.W.S.W.=X1X1X>X+X}._.K.9.+.+.@.6.9.9. .l s c } f.K.K.Z.t.r.f.W.=X>X+X(.h.6.@.+.",
"$X=X,X1X1X1X1X,X=Xx.q 9 k.+X>X1X1X1X1X>X+X}._.^.^.[.oX=X,X1X1X<X>X%X}.K.9.+.+.6.z.K.K.S.a...s a } 9.9.t.Z.^..X=X,X<X>X#X(.z.6.+.",
"1X1X1X1X1X1X1X1X1X XG h o.H.oX;X;X;X;X%X}.^.^.^.^.|.;X1X1X1X1X1X1X;X|.S. .D @.h.(.|.|.}._.g.b s c D @.h.(.+X>X1X1X1X1X;X|.K.9.+.",
"1X1X1X1X1X1X1X1X1X*XI.o.h A H.|.|.|.|.}._.^.^.^.^.|.;X1X1X1X1X1X1X;X|.a.l g q.(.#X;X;X%X}.U.g...s g q.(.#X>X<X1X1X1X1X;X|.K.9.+.",
";X>X<X1X1X1X1X<X>X%X}.e.7 > J g.U.^.^.^.^.!.U.K.K.(.#X>X<X1X1X<X>X%X}.e.7 7 e.|.;X1X1X;X|.^.^.e.7 7 e.|.;X1X1X1X1X1X1X;X|.K.9.+.",
"|.+X>X1X1X1X1X>X+X}._.e.7 $ > b g.^.^.^.^.U.p.9.9.h.(.+X>X1X1X>X+X}._.e.7 7 e.|.;X1X1X;X|.^.^.e.7 7 e.|.;X1X1X1X1X1X1X;X|.K.9.+.",
"^.}.%X;X;X;X;X%X}.U.g...s 2 q G I.}._.^.^.K.9.+.+.6.z.(.#X;X;X%X}.U.g...s g q.(.#X;X;X%X}.^.^.g.b b g.}.%X>X<X1X1X<X>X%X}.S. .Z ",
"^._.}.|.|.|.|.}._.g.b s c X.x. X*X%X}.^.^.K.9.+.+.@.6.h.(.|.|.}._.g.b s c D @.h.(.|.|.}._.^.^.U.g.g.U._.}.+X>X1X1X>X+X}._.a.l : ",
"K.U.!.^.^.^.^.U.g...s a } H.%X1X1X;X|.^.^.U.p.6.@.+.+.@.q.e.e.e.e.J > : Z +.+.6.z.U.!.^.^.^.^.^.^.^.^.^.^.}.%X;X;X%X}.U.g...s : ",
"9.p.U.^.^.^.^.g.b s c } f.`.-X1X1X;X|.^.^.!.U.z.6.+.+.D g 7 7 7 7 > $ : Z +.+.@.6.p.U.^.^.^.^.^.^.^.^.^.^._.}.|.|.}._.g.b s c Z ",
"+.6.z.U.!.^.^.g.b g D 9.K.}.%X;X;X%X}.^.^.^.^.K.9.+.+.S 8 > 3 7 7 7 7 s c S | +.+.r.^.|.|.}._.^.^.!.U.K.K.K.K.S.a.e.e...s 8 S +.",
"+.@.6.p.U.^.^.U.g.q.@.9.K._.}.|.|.}._.^.^.^.^.K.9.+.+.| S H %.e.e.e.e...s 8 S +.+.f..X;X;X%X}.^.^.U.p.9.9.9.9. .l 7 7 s c S | +.",
"+.@.6.h.(.|.|.}._.K.9.6.z.U.!.^.^.^.^.^.^.^.^.U.p.6.@.@.6.h.(.|.|.}._.g.b s c { w.W.=X1X1X>X+X}._.U.p.6.@.| S C z f f v { +.+.+.",
"+.6.z.(.#X;X;X%X}.K.9.@.6.p.U.^.^.^.^.^.^.^.^.!.U.z.6.6.z.(.#X;X;X%X}.U.g...s v T.=X,X1X1X<X>X%X}.!.U.z.6.S 8 z s.].].T.w.+.+.+.",
"9.h.(.+X>X1X1X;X|.K.9.+.+.6.z.U.!.^.^.!.U.U.!.^.^.U.p.h.(.+X>X1X1X>X+X}._.g.b G  X1X1X1X1X1X1X;X|.^.^.S. .C z K XX1X1X=XW.y.&.+.",
"K.(.#X>X<X1X1X;X|.K.9.+.+.@.6.p.U.^.^.U.p.p.U.^.^.!.U.(.#X>X<X1X1X<X>X%X}.U.g.I.*X1X1X1X1X1X1X;X|.^.^.a.l z s.XX>X1X1X,X=X{.y.+.",
"^.}.%X>X<X<X>X%X}.U.p.6.@.+.+.@.q.e.e.%.H } f.U.!.^.^.|.;X1X1X1X1X1X1X;X|.^.^.}.%X>X<X1X1X<X>X%X}.U.g.o.h G  X1X1X1X1X1X1X%XH.9.",
"^._.}.+X>X>X+X}._.!.U.z.6.+.+.D g 7 7 3 > a } p.U.^.^.|.;X1X1X1X1X1X1X;X|.^.^._.}.+X>X1X1X>X+X}._.g.b h o.I.*X1X1X1X1X1X1X-X`.K.",
"^.^.^.}.%X%X}.^.^.^.^.K.9.+.+.D g 7 7 7 7 s c } f.U.!.}.%X>X<X1X1X<X>X%X}.^.^.!.U.(.#X;X;X%X}.^.^.e.7 7 e.}.%X;X;X;X;X;X;X%X}.^.",
"^.^.^._.}.}._.^.^.^.^.K.9.+.+.@.q.e.e.e.e...s a } p.U._.}.+X>X1X1X>X+X}._.^.^.U.p.h.(.|.|.}._.^.^.e.7 7 e._.}.|.|.|.|.|.|.}._.^.",
"G.P.Q.^.^.^.^.Q.P.G.G.C.;.O.O.0.K.^.^.^.^.g.b s c H %.i.Z./.@X*X X'.).U.g.g.U.S. . .S.^.^.Q.P.G.G.9.0 3 ..i.Z.G.G.P.Q.^.^.Q.P.G.",
",.v.P.^.^.^.^.P.v.,.,.:.*.! ! <.F.^.^.^.^.U.g...s > 3 k Q b./.I.G F k.g.b b g.a.l l a.^.^.P.v.,.,.-.    3 k Q ,.,.v.P.^.^.P.v.,.",
"B W u.G.G.Z.i.$.Y L T ~ ~ ~ ~ :.V.P.Q.^.^.Q.P.$.6 O O = B *.6.J > 6 $.$.6 > J J > 6 $.G.G.u.W B B N     * 5 m B B W u.G.G.u.W B ",
"= r W ,.,.Q k 6 < w L ~ ~ ~ ~ / :.v.P.^.^.P.v.Y < O O = B U j > $ < Y Y < $ > > $ < Y ,.,.W r = = % @ * n m 5 = = r W ,.,.W r = ",
"O % p L T B = O O = B T L L T ~ ~ :.V.G.G.V.:.L w % + % p m 5 = = 5 m p % + % % + % p L T B = O O O O = B B = O O ; P ` I p % O ",
"O + % w L B = O O = B L w w L ~ ~ / :.,.,.:./ T L p % + % 5 m B B m 5 % + % p p % + % w L B = O O O O = B B = O O 1 _ ' y % + O ",
"= % + % p m 5 = = 5 m p % % p L T ~ ~ ~ ~ ~ ~ ~ ~ B = O O % p L T L w = = 5 m p % + % w L L w = = % + % p m 5 ; 1 u ) V - + % = ",
"B p % + % 5 m B B m 5 % + + % w L ~ ~ ~ ~ ~ ~ ~ ~ B = O O + % w L T L B B m 5 % + % p L T T L B B p % + % 5 m P _ ) u - # % p B ",
"B m 5 = = w L T L p % O O + % 5 m B B L T ~ ~ T L p % O O + % 5 m L T T L p % O O % p L T T L I ` P ; O O % p R 3.' y = = 5 m B ",
"= 5 m B B L T L w % + O O % p m 5 = = w L ~ ~ L w % + O O % p m 5 w L L w % + O O + % w L L w y ' _ 1 O O + % r R ` I B B m 5 = ",
"O % p L T T L m 5 % + O O = B B = O O = B T L p % O O O O % p m 5 w L L w % + O O O O = B I y u ) V - O O O O % p B B B B p % O ",
"O + % w L L w 5 m p % O O = B B = O O = B L w % + O O O O + % 5 m L T T L p % O O O O = B ` ' ) u - # O O O O + % = = = = % + O ",
"O # - i E E i t M p % O O % p m 5 = = 5 m p % O O O O O O + % w L T L B B p % O O + % r R 4.M.2.x - # O O + % = = % + O O O O O ",
"O - V 1.5.5.1.( t % + O O + % 5 m B B m 5 % + O O O O O O % p L T L w = = % + O O % p R 3.M.N.m.2.V - O O % p B B p % O O O O O ",
"= i 1.B.B.N.M.' y % + O O + % w L ~ ~ L w = = % + O O # - i E [ ^ L w % + O O + % w L [ c.M.N.N.M._ 1 + % w L ~ ~ L w % + O O O ",
"B E 5.B.B.M.4.` I p % O O % p L T ~ ~ T L B B p % O O - V 1.5.c.[ T L p % O O % p L T ^ [ 4.M.M.4.P ; % p L T ~ ~ T L p % O O O ",
"B R 3.n.n.3.R B B m 5 % + % p L T ~ ~ T L L T L w % + 1 _ n.n.3.R B B m 5 % + = B T L B B R 3.c.[ L w w L ~ ~ ~ ~ ~ ~ B = O O O ",
"= r R [ [ R r = = 5 m p % + % w L ~ ~ L w w L T L p % ; P [ [ R r = = 5 m p % = B L w = = r R [ ^ T L L T ~ ~ ~ ~ ~ ~ B = O O O ",
"O % p L T B = O O = B B = O O = B ^ [ P ; % p L T B = % p L T B = O O = B B = = B B = O O = B T L B B L T ~ ~ T L B B m 5 % + O ",
"O + % w L B = O O = B B = O O = B [ c._ 1 + % w L B = + % w L B = O O = B B = = B B = O O = B L w = = w L ~ ~ L w = = 5 m p % O ",
"= % + % p m 5 = = 5 m p % + % 5 m P _ ) u 1 ; 5 m p % O O % p m 5 = = 5 m p % % p m 5 = = 5 m p % + % 5 m L T B = O O = B B = O ",
"B p % + % 5 m B B m 5 % + % p m 5 ; 1 u ) _ P m 5 % + O O + % 5 m B B m 5 % + + % 5 m B B m 5 % + % p m 5 w L B = O O = B B = O ",
"B m 5 = = w L T L p % O O % p m 5 = = y ' 3.R p % O O + % = = w L T L p % O O O O % p L T L w = = 5 m p % % p m 5 = = 5 m p % O ",
"= 5 m B B L T L w % + O O + % 5 m B B I ` R r % + O O % p B B L T L w % + O O O O + % w L T L B B m 5 % + + % 5 m B B m 5 % + O ",
"O % p L T T L m 5 % + O O O O % p B B B B m 5 % + O O % p L T T L m 5 % + O O O O + % 5 m L T T L p % + % = = w L T L p % O O O ",
"O + % w L L w 5 m p % O O O O + % = = = = 5 m p % O O + % w L L w 5 m p % O O O O % p m 5 w L L w % + % p B B L T L w % + O O O ",
"O O O = B L w 5 m p % O O O O O O + % = = 5 m p % O O O O = B L w 5 m p % O O O O % p m 5 w L B = O O % p L T T L m 5 % + O O O ",
"O O O = B T L m 5 % + O O O O O O % p B B m 5 % + O O O O = B T L m 5 % + O O O O + % 5 m L T B = O O + % w L L w 5 m p % O O O ",
"O O O % p B B p % O O O O O O O O % p B B p % O O O O O O % p B B p % O O O O O O O O % p B B p % O O O O % p p % % p p % O O O ",
"O O O + % = = % + O O O O O O O O + % = = % + O O O O O O + % = = % + O O O O O O O O + % = = % + O O O O + % % + + % % + O O O ",
"o o o o o o o o o o o o o o o o o o o o o o o o o o o o o o o o o o o o o o o o o o o o o o o o o o o o o o o o o o o o o o o o ",
"X X X X X X X X X X X X X X X X X X X X X X X X X X X X X X X X X X X X X X X X X X X X X X X X X X X X X X X X X X X X X X X X ",
". . . . . . . . . . . . . . . . . . . . . . . . . . . . . . . . . . . . . . . . . . . . . . . . . . . . . . . . . . . . . . . . "
};
